<?xml version="1.0" encoding="utf-8"?>
<!-- Generator: Adobe Illustrator 17.0.0, SVG Export Plug-In . SVG Version: 6.00 Build 0)  -->
<!DOCTYPE svg PUBLIC "-//W3C//DTD SVG 1.1//EN" "http://www.w3.org/Graphics/SVG/1.1/DTD/svg11.dtd">
<svg version="1.1" id="Camada_1" xmlns="http://www.w3.org/2000/svg" xmlns:xlink="http://www.w3.org/1999/xlink" x="0px" y="0px"
	 width="730px" height="646px" viewBox="0 0 730 646" enable-background="new 0 0 730 646" xml:space="preserve">
<circle fill="#76AADB" cx="379.641" cy="323.5" r="254.302"/>
<g>
	<path fill="#FFFFFF" d="M184.361,453.524c-9.14,0-16.576-7.81-16.576-17.409v-225.23c0-9.6,7.436-17.41,16.576-17.41H574.92
		c9.141,0,16.576,7.81,16.576,17.41v225.23c0,9.6-7.436,17.409-16.576,17.409H184.361z"/>
	<path fill="#4A72B2" d="M574.92,197.476c6.946,0,12.576,6.004,12.576,13.409v225.23c0,7.406-5.631,13.41-12.576,13.41H184.361
		c-6.946,0-12.576-6.004-12.576-13.41v-225.23c0-7.406,5.631-13.409,12.576-13.409H574.92 M574.92,189.476H184.361
		c-11.346,0-20.576,9.604-20.576,21.409v225.23c0,11.805,9.23,21.41,20.576,21.41H574.92c11.346,0,20.576-9.604,20.576-21.41
		v-225.23C595.496,199.08,586.266,189.476,574.92,189.476L574.92,189.476z"/>
</g>
<g>
	<path fill="#FFFFFF" d="M1103.061-57.344c-10.195,0-18.49-8.295-18.49-18.49v-233.428c0-10.196,8.295-18.491,18.49-18.491h118.608
		c10.195,0,18.49,8.295,18.49,18.491v233.428c0,10.195-8.295,18.49-18.49,18.49H1103.061z"/>
	<path fill="#4A72B2" d="M1221.669-323.752c8.003,0,14.49,6.488,14.49,14.491v233.428c0,8.003-6.488,14.491-14.49,14.491h-118.608
		c-8.003,0-14.491-6.488-14.491-14.491v-233.428c0-8.003,6.488-14.491,14.491-14.491H1221.669 M1221.669-331.752h-118.608
		c-12.401,0-22.491,10.089-22.491,22.491v233.428c0,12.401,10.089,22.491,22.491,22.491h118.608c12.401,0,22.49-10.089,22.49-22.491
		v-233.428C1244.159-321.663,1234.07-331.752,1221.669-331.752L1221.669-331.752z"/>
</g>
<rect x="1100.195" y="-279.845" fill="#A3BD31" width="124.341" height="133.987"/>
<rect x="1100.194" y="-307.518" fill="#4A72B2" width="55.395" height="13.497"/>
<rect x="1100.194" y="-127.18" fill="#4A72B2" width="55.395" height="43.777"/>
<rect x="1169.14" y="-127.18" fill="#4A72B2" width="55.395" height="43.777"/>
<g>
	<polygon fill="#A3BD31" points="1505.771,578.201 1205.771,578.201 1249.497,323.5 1457.163,323.5 	"/>
	<path fill="none" stroke="#4A72B2" stroke-width="10" stroke-miterlimit="10" d="M1301.56,353.445V270.33
		c0,0,0-43.994,53.406-43.994c52.466,0,52.466,43.994,52.466,43.994v83.115"/>
</g>
<polygon fill="#FFFFFF" stroke="#4A72B2" stroke-width="5" stroke-miterlimit="10" points="1379.88,402.268 1379.88,586.759 
	1430.877,535.762 1462.367,599.357 1484.271,584.664 1458.097,519.034 1519.373,500.813 "/>
<g>
	<line fill="none" stroke="#4A72B2" stroke-width="3" stroke-miterlimit="10" x1="197.667" y1="234.667" x2="565" y2="234.667"/>
	<line fill="none" stroke="#4A72B2" stroke-width="3" stroke-miterlimit="10" x1="197.667" y1="280.417" x2="565" y2="280.417"/>
	<line fill="none" stroke="#4A72B2" stroke-width="3" stroke-miterlimit="10" x1="197.667" y1="326.167" x2="565" y2="326.167"/>
	<line fill="none" stroke="#4A72B2" stroke-width="3" stroke-miterlimit="10" x1="197.667" y1="371.917" x2="565" y2="371.917"/>
	<line fill="none" stroke="#4A72B2" stroke-width="3" stroke-miterlimit="10" x1="197.667" y1="417.667" x2="565" y2="417.667"/>
</g>
<polyline fill="none" stroke="#A3BD31" stroke-width="10" stroke-miterlimit="10" points="201,421 379.641,287 379.641,328 562,216 
	"/>
<g>
	<path fill="#444242" d="M565,593.512c0,8.003-6.488,14.491-14.491,14.491H431.902c-8.003,0-14.491-6.488-14.491-14.491V360.084
		c0-8.003,6.488-14.491,14.491-14.491h118.608c8.003,0,14.491,6.488,14.491,14.491V593.512z"/>
</g>
<g>
	<path fill="#FFFFFF" d="M452.65,596.657c-10.195,0-18.49-8.295-18.49-18.491V344.738c0-10.195,8.295-18.49,18.49-18.49h118.608
		c10.195,0,18.49,8.295,18.49,18.49v233.428c0,10.196-8.295,18.491-18.49,18.491H452.65z"/>
	<path fill="#4A72B2" d="M571.258,330.248c8.003,0,14.491,6.488,14.491,14.491v233.428c0,8.003-6.488,14.491-14.491,14.491H452.65
		c-8.003,0-14.491-6.488-14.491-14.491V344.739c0-8.003,6.488-14.491,14.491-14.491H571.258 M571.258,322.248H452.65
		c-12.401,0-22.491,10.089-22.491,22.491v233.428c0,12.401,10.089,22.491,22.491,22.491h118.608
		c12.401,0,22.491-10.089,22.491-22.491V344.739C593.748,332.337,583.659,322.248,571.258,322.248L571.258,322.248z"/>
</g>
<rect x="449.783" y="468" fill="#A3BD31" width="55.395" height="102.597"/>
<rect x="518.729" y="383" fill="#A3BD31" width="55.395" height="187.597"/>
</svg>
