<svg width="256" height="256" viewBox="0 0 256 256" fill="none" xmlns="http://www.w3.org/2000/svg">
<path d="M223.366 65.8266L133.839 14.2975C132.356 13.3707 130.317 13 128.093 13C125.868 13 123.829 13.5561 122.346 14.2975L33.3753 66.012C30.2243 67.8655 28 72.4994 28 76.0212V179.265C28 181.304 28.3707 183.713 29.8536 185.752L227.814 70.8312C226.702 68.607 225.034 66.9387 223.366 65.8266V65.8266Z" fill="#9B4F96"/>
<path d="M29.2979 185.567C30.2246 187.05 31.5221 188.347 32.8196 189.089L122.161 240.803C123.644 241.73 125.683 242.101 127.908 242.101C130.132 242.101 132.171 241.545 133.654 240.803L222.625 189.089C225.776 187.235 228 182.601 228 179.08V75.836C228 74.1678 227.815 72.3142 226.888 70.646L29.2979 185.567V185.567Z" fill="#68217A"/>
<path d="M167.573 149.978C159.788 163.695 144.959 172.963 128.092 172.963C103.069 172.963 82.6795 152.573 82.6795 127.55C82.6795 102.527 103.069 82.138 128.092 82.138C144.959 82.138 159.788 91.4058 167.573 105.308L191.669 91.4058C179.065 69.3484 155.339 54.3345 128.092 54.3345C87.6841 54.3345 54.876 87.1426 54.876 127.55C54.876 167.958 87.6841 200.766 128.092 200.766C155.154 200.766 178.88 185.938 191.484 164.066L167.573 149.978V149.978ZM189.259 131.628L190.928 123.658H183.143V114.946H192.596L194.82 103.454H203.903L201.678 114.761H208.722L210.946 103.454H219.843L217.619 114.761H222.068V123.472H215.951L214.283 131.443H222.068V140.155H212.614L210.39 151.276H201.308L203.532 140.155H196.488L194.264 151.276H185.367L187.591 140.155H183.143V131.443H189.259V131.628ZM198.157 131.628H205.2L206.868 123.658H199.825L198.157 131.628Z" fill="white"/>
</svg>
