<svg width="196" height="22" viewBox="0 0 196 22" fill="none" xmlns="http://www.w3.org/2000/svg">
<path d="M7.788 21.384C6.844 21.384 5.952 21.216 5.112 20.88C4.28 20.544 3.544 20.076 2.904 19.476C2.264 18.876 1.76 18.184 1.392 17.4C1.024 16.608 0.84 15.764 0.84 14.868C0.84 14.012 1.012 13.196 1.356 12.42C1.708 11.636 2.196 10.936 2.82 10.32C3.444 9.704 4.176 9.22 5.016 8.868C5.856 8.508 6.772 8.328 7.764 8.328C8.556 8.328 9.316 8.44 10.044 8.664C10.78 8.88 11.36 9.152 11.784 9.48L10.332 12.432C9.836 12.08 9.212 11.904 8.46 11.904C7.796 11.904 7.24 12.052 6.792 12.348C6.344 12.644 6.008 13.02 5.784 13.476C5.568 13.932 5.46 14.392 5.46 14.856C5.46 15.392 5.584 15.884 5.832 16.332C6.08 16.78 6.432 17.14 6.888 17.412C7.344 17.676 7.876 17.808 8.484 17.808C8.868 17.808 9.22 17.76 9.54 17.664C9.86 17.56 10.124 17.432 10.332 17.28L11.784 20.232C11.352 20.552 10.776 20.824 10.056 21.048C9.336 21.272 8.58 21.384 7.788 21.384ZM14.391 21V0.36H18.771V21H14.391ZM28.7691 21.384C27.4251 21.384 26.2171 21.096 25.1451 20.52C24.0731 19.944 23.2251 19.164 22.6011 18.18C21.9851 17.196 21.6771 16.084 21.6771 14.844C21.6771 13.924 21.8531 13.072 22.2051 12.288C22.5571 11.496 23.0491 10.804 23.6811 10.212C24.3131 9.612 25.0491 9.148 25.8891 8.82C26.7371 8.492 27.6531 8.328 28.6371 8.328C29.9171 8.328 31.0371 8.596 31.9971 9.132C32.9651 9.66 33.7211 10.4 34.2651 11.352C34.8091 12.296 35.0811 13.392 35.0811 14.64C35.0811 14.744 35.0771 14.84 35.0691 14.928C35.0691 15.016 35.0571 15.192 35.0331 15.456H26.1891C26.1891 15.952 26.3051 16.384 26.5371 16.752C26.7691 17.12 27.0971 17.408 27.5211 17.616C27.9451 17.816 28.4451 17.916 29.0211 17.916C29.5571 17.916 30.0251 17.816 30.4251 17.616C30.8251 17.408 31.2491 17.068 31.6971 16.596L34.8411 18.168C34.2651 19.176 33.4371 19.964 32.3571 20.532C31.2851 21.1 30.0891 21.384 28.7691 21.384ZM26.3211 13.248H30.7851C30.7291 12.848 30.6011 12.512 30.4011 12.24C30.2011 11.968 29.9451 11.764 29.6331 11.628C29.3211 11.484 28.9571 11.412 28.5411 11.412C28.1091 11.412 27.7291 11.484 27.4011 11.628C27.0811 11.772 26.8291 11.98 26.6451 12.252C26.4611 12.524 26.3531 12.856 26.3211 13.248ZM38.0863 21V8.712H42.4663V21H38.0863ZM40.2703 6.12C39.8063 6.12 39.3783 6.004 38.9863 5.772C38.5943 5.54 38.2823 5.232 38.0503 4.848C37.8263 4.456 37.7143 4.024 37.7143 3.552C37.7143 3.088 37.8263 2.664 38.0503 2.28C38.2823 1.888 38.5943 1.576 38.9863 1.344C39.3783 1.112 39.8063 0.995999 40.2703 0.995999C40.7423 0.995999 41.1703 1.112 41.5543 1.344C41.9383 1.576 42.2463 1.884 42.4783 2.268C42.7103 2.652 42.8263 3.08 42.8263 3.552C42.8263 4.024 42.7103 4.456 42.4783 4.848C42.2463 5.232 41.9383 5.54 41.5543 5.772C41.1703 6.004 40.7423 6.12 40.2703 6.12ZM51.1684 21.384C49.8404 21.384 48.8044 20.968 48.0604 20.136C47.3164 19.296 46.9444 18.124 46.9444 16.62V12.036H45.1564V8.712H46.9444V4.104H51.3244V8.712H53.8924V12.036H51.3244V16.296C51.3244 16.68 51.4004 16.972 51.5524 17.172C51.7124 17.372 51.9444 17.472 52.2484 17.472C52.6004 17.472 52.9484 17.344 53.2924 17.088L54.3844 20.604C53.9204 20.844 53.4044 21.032 52.8364 21.168C52.2684 21.312 51.7124 21.384 51.1684 21.384ZM63.5565 21.384C62.1725 21.384 60.9245 21.108 59.8125 20.556C58.7005 19.996 57.8205 19.228 57.1725 18.252C56.5245 17.268 56.2005 16.136 56.2005 14.856C56.2005 13.576 56.5245 12.448 57.1725 11.472C57.8205 10.488 58.7005 9.72 59.8125 9.168C60.9245 8.608 62.1725 8.328 63.5565 8.328C64.9405 8.328 66.1885 8.608 67.3005 9.168C68.4125 9.72 69.2925 10.488 69.9405 11.472C70.5885 12.448 70.9125 13.576 70.9125 14.856C70.9125 16.136 70.5885 17.268 69.9405 18.252C69.2925 19.228 68.4125 19.996 67.3005 20.556C66.1885 21.108 64.9405 21.384 63.5565 21.384ZM63.5565 17.664C64.0685 17.664 64.5325 17.544 64.9485 17.304C65.3725 17.064 65.7085 16.736 65.9565 16.32C66.2045 15.896 66.3285 15.408 66.3285 14.856C66.3285 14.304 66.2045 13.816 65.9565 13.392C65.7085 12.968 65.3725 12.64 64.9485 12.408C64.5325 12.168 64.0685 12.048 63.5565 12.048C63.0445 12.048 62.5765 12.168 62.1525 12.408C61.7365 12.64 61.4045 12.968 61.1565 13.392C60.9085 13.816 60.7845 14.304 60.7845 14.856C60.7845 15.408 60.9085 15.896 61.1565 16.32C61.4045 16.736 61.7365 17.064 62.1525 17.304C62.5765 17.544 63.0445 17.664 63.5565 17.664ZM73.7582 21V8.712H78.1382V9.96C78.6662 9.456 79.2862 9.06 79.9982 8.772C80.7102 8.476 81.4582 8.328 82.2422 8.328C83.1862 8.328 84.0222 8.536 84.7502 8.952C85.4782 9.368 86.0502 9.944 86.4662 10.68C86.8902 11.408 87.1022 12.244 87.1022 13.188V21H82.7222V14.124C82.7222 13.388 82.5182 12.808 82.1102 12.384C81.7022 11.952 81.1502 11.736 80.4542 11.736C79.9822 11.736 79.5742 11.832 79.2302 12.024C78.8862 12.216 78.6182 12.484 78.4262 12.828C78.2342 13.164 78.1382 13.552 78.1382 13.992V21H73.7582ZM90.891 21V0.36H95.271V21H90.891ZM105.725 21.384C103.341 21.384 101.621 20.932 100.565 20.028C99.5091 19.124 98.9811 17.656 98.9811 15.624V8.712H103.361V14.544C103.361 15.752 103.537 16.604 103.889 17.1C104.249 17.588 104.861 17.832 105.725 17.832C106.597 17.832 107.209 17.588 107.561 17.1C107.913 16.604 108.089 15.752 108.089 14.544V8.712H112.469V15.624C112.469 17.656 111.941 19.124 110.885 20.028C109.829 20.932 108.109 21.384 105.725 21.384ZM116.18 21V8.712H120.56V21H116.18ZM118.364 6.12C117.9 6.12 117.472 6.004 117.08 5.772C116.688 5.54 116.376 5.232 116.144 4.848C115.92 4.456 115.808 4.024 115.808 3.552C115.808 3.088 115.92 2.664 116.144 2.28C116.376 1.888 116.688 1.576 117.08 1.344C117.472 1.112 117.9 0.995999 118.364 0.995999C118.836 0.995999 119.264 1.112 119.648 1.344C120.032 1.576 120.34 1.884 120.572 2.268C120.804 2.652 120.92 3.08 120.92 3.552C120.92 4.024 120.804 4.456 120.572 4.848C120.34 5.232 120.032 5.54 119.648 5.772C119.264 6.004 118.836 6.12 118.364 6.12ZM122.914 21L128.878 12.024H123.934V8.712H136.174L130.21 17.688H135.694V21H122.914ZM141.773 21.384C141.253 21.384 140.777 21.256 140.345 21C139.921 20.752 139.581 20.416 139.325 19.992C139.077 19.56 138.953 19.084 138.953 18.564C138.953 18.044 139.077 17.572 139.325 17.148C139.581 16.716 139.921 16.376 140.345 16.128C140.777 15.872 141.253 15.744 141.773 15.744C142.293 15.744 142.765 15.872 143.189 16.128C143.621 16.376 143.961 16.716 144.209 17.148C144.465 17.572 144.593 18.044 144.593 18.564C144.593 19.084 144.465 19.56 144.209 19.992C143.961 20.416 143.621 20.752 143.189 21C142.765 21.256 142.293 21.384 141.773 21.384ZM153.857 21.384C152.753 21.384 151.745 21.108 150.833 20.556C149.921 20.004 149.189 19.236 148.637 18.252C148.093 17.268 147.821 16.136 147.821 14.856C147.821 13.616 148.085 12.504 148.613 11.52C149.141 10.536 149.865 9.76 150.785 9.192C151.713 8.616 152.773 8.328 153.965 8.328C154.741 8.328 155.469 8.46 156.149 8.724C156.829 8.988 157.413 9.36 157.901 9.84V0.36H162.281V21H157.901V19.728C157.349 20.256 156.725 20.664 156.029 20.952C155.341 21.24 154.617 21.384 153.857 21.384ZM155.201 17.676C155.745 17.676 156.225 17.556 156.641 17.316C157.065 17.068 157.393 16.732 157.625 16.308C157.865 15.884 157.985 15.408 157.985 14.88C157.985 14.328 157.865 13.84 157.625 13.416C157.385 12.992 157.057 12.656 156.641 12.408C156.225 12.16 155.749 12.036 155.213 12.036C154.685 12.036 154.213 12.16 153.797 12.408C153.381 12.656 153.049 12.996 152.801 13.428C152.561 13.852 152.441 14.34 152.441 14.892C152.441 15.42 152.557 15.896 152.789 16.32C153.029 16.736 153.357 17.068 153.773 17.316C154.189 17.556 154.665 17.676 155.201 17.676ZM172.277 21.384C170.933 21.384 169.725 21.096 168.653 20.52C167.581 19.944 166.733 19.164 166.109 18.18C165.493 17.196 165.185 16.084 165.185 14.844C165.185 13.924 165.361 13.072 165.713 12.288C166.065 11.496 166.557 10.804 167.189 10.212C167.821 9.612 168.557 9.148 169.397 8.82C170.245 8.492 171.161 8.328 172.145 8.328C173.425 8.328 174.545 8.596 175.505 9.132C176.473 9.66 177.229 10.4 177.773 11.352C178.317 12.296 178.589 13.392 178.589 14.64C178.589 14.744 178.585 14.84 178.577 14.928C178.577 15.016 178.565 15.192 178.541 15.456H169.697C169.697 15.952 169.813 16.384 170.045 16.752C170.277 17.12 170.605 17.408 171.029 17.616C171.453 17.816 171.953 17.916 172.529 17.916C173.065 17.916 173.533 17.816 173.933 17.616C174.333 17.408 174.757 17.068 175.205 16.596L178.349 18.168C177.773 19.176 176.945 19.964 175.865 20.532C174.793 21.1 173.597 21.384 172.277 21.384ZM169.829 13.248H174.293C174.237 12.848 174.109 12.512 173.909 12.24C173.709 11.968 173.453 11.764 173.141 11.628C172.829 11.484 172.465 11.412 172.049 11.412C171.617 11.412 171.237 11.484 170.909 11.628C170.589 11.772 170.337 11.98 170.153 12.252C169.969 12.524 169.861 12.856 169.829 13.248ZM185.64 21L179.016 8.712H184.188L187.116 15.276L190.056 8.712H195.228L188.592 21H185.64Z" fill="#C7EF00"/>
</svg>
