<?xml version="1.0" encoding="UTF-8"?>
<!DOCTYPE svg PUBLIC "-//W3C//DTD SVG 1.1//EN" "http://www.w3.org/Graphics/SVG/1.1/DTD/svg11.dtd">
<!-- Creator: CorelDRAW -->
<svg xmlns="http://www.w3.org/2000/svg" xml:space="preserve" width="8.66666in" height="8.66666in" style="shape-rendering:geometricPrecision; text-rendering:geometricPrecision; image-rendering:optimizeQuality; fill-rule:evenodd; clip-rule:evenodd"
viewBox="0 0 8.66666 8.66666"
 xmlns:xlink="http://www.w3.org/1999/xlink">
 <defs>
  <style type="text/css">
   <![CDATA[
    .fil0 {fill:#2F3B99}
    .fil1 {fill:white}
   ]]>
  </style>
 </defs>
 <g id="Layer_x0020_1">
  <metadata id="CorelCorpID_0Corel-Layer"/>
  <circle class="fil0" cx="4.33333" cy="4.33333" r="4.33333"/>
  <g id="_275490984">
   <g>
    <path id="_275477688" class="fil1" d="M2.00696 2.96779c0.10735,0.052811 0.323354,0.148795 0.611122,0.224882 0.0399567,-0.236811 0.102087,-0.449909 0.180728,-0.626575 0.0592362,-0.133063 0.128445,-0.246331 0.205492,-0.33502 -0.290626,0.0727835 -0.550323,0.223563 -0.755555,0.428791 -0.0923307,0.0923307 -0.173642,0.195689 -0.241787,0.307921z"/>
    <path id="_275503392" class="fil1" d="M2.95249 2.63469c-0.0743346,0.166972 -0.132874,0.370138 -0.17015,0.597217 0.356429,0.0760709 0.79737,0.111362 1.2682,0.0124764 -0.0371654,-0.232114 -0.0964803,-0.439665 -0.172169,-0.609693 -0.12435,-0.279343 -0.288496,-0.452126 -0.462945,-0.452126 -0.174449,0 -0.338591,0.172783 -0.462941,0.452126z"/>
    <path id="_275497536" class="fil1" d="M4.03205 2.5661c0.0799646,0.179634 0.14285,0.396921 0.18272,0.638512 0.191744,-0.0527047 0.387303,-0.128835 0.583122,-0.234453 -0.068437,-0.11315 -0.150236,-0.217307 -0.243217,-0.310287 -0.196862,-0.196862 -0.443835,-0.343618 -0.72015,-0.419496 0.0738583,0.087252 0.140339,0.197268 0.197524,0.325724z"/>
    <path id="_275496624" class="fil1" d="M4.8775 3.11861c-0.214815,0.115811 -0.429283,0.198098 -0.63922,0.254012 0.0132441,0.114614 0.0214449,0.233626 0.0240472,0.355787l0.767768 0c-0.0110787,-0.217209 -0.0646614,-0.423193 -0.152594,-0.609799z"/>
    <path id="_275496552" class="fil1" d="M4.07296 3.41153c-0.48698,0.0998228 -0.942894,0.0644724 -1.31359,-0.013248 -0.0119803,0.10622 -0.0194646,0.216622 -0.0219528,0.330122l1.35603 0c-0.00238189,-0.108787 -0.00935827,-0.214732 -0.0204843,-0.316874z"/>
    <path id="_275496048" class="fil1" d="M2.56854 3.72841c0.00269685,-0.126783 0.0114291,-0.250173 0.0255748,-0.368768 -0.315476,-0.0814488 -0.551858,-0.186622 -0.667067,-0.243398 -0.0885945,0.187232 -0.142583,0.394039 -0.153709,0.612165l0.795201 0z"/>
    <path id="_275496336" class="fil1" d="M2.56853 3.89725l-0.795205 0c0.0120512,0.236425 0.0744134,0.459516 0.176587,0.658776 0.113213,-0.0545984 0.343957,-0.155075 0.651354,-0.233374 -0.018378,-0.135764 -0.0296142,-0.278295 -0.0327362,-0.425402z"/>
    <path id="_275496192" class="fil1" d="M2.73741 3.89725c0.00293701,0.134016 0.0128386,0.263732 0.0289016,0.387346 0.137598,-0.0284134 0.287118,-0.0510276 0.445665,-0.0630197 0.00698425,-0.0101142 0.0148661,-0.019563 0.0235276,-0.0282244 0.0365118,-0.0365039 0.0869488,-0.0591732 0.142492,-0.0591732l0.702839 0c0.00347638,-0.0400315 0.00630709,-0.0804055 0.00846457,-0.121047 0.00198031,-0.0373031 0.0033937,-0.0759331 0.00421654,-0.115882l-1.35611 0z"/>
    <path id="_275495952" class="fil1" d="M4.26225 3.89725c-0.000929134,0.0409449 -0.00252756,0.0824606 -0.00475591,0.124461 -0.00201575,0.0380039 -0.00455906,0.0755039 -0.0076063,0.112469l0.750811 0c0.00818504,-0.0411969 0.0148937,-0.0833976 0.0200433,-0.126539 0.00433858,-0.0363071 0.00747638,-0.0731181 0.00936614,-0.11039l-0.767858 0z"/>
    <path id="_275496144" class="fil1" d="M3.17633 5.33246l0 -0.938882c-0.136307,0.0123228 -0.265012,0.0326024 -0.384067,0.0573661 0.027685,0.151071 0.0649173,0.29072 0.110008,0.415138 0.0742913,0.204988 0.168362,0.366602 0.274059,0.466378z"/>
    <path id="_275495712" class="fil1" d="M2.74398 4.92346c-0.0474016,-0.130803 -0.0866457,-0.27685 -0.11598,-0.434217 -0.277264,0.0716693 -0.486189,0.161453 -0.593461,0.212665 0.0497835,0.0764094 0.105795,0.148378 0.167323,0.215189 0.211913,0.23011 0.489197,0.399075 0.802366,0.477469 -0.101953,-0.117587 -0.190441,-0.278504 -0.260248,-0.471106z"/>
   </g>
   <g>
    <path id="_275495136" class="fil1" d="M6.45614 5.85689c-0.00284646,-0.00182677 -0.00570079,-0.00365748 -0.0086063,-0.00539764 0.00291732,0.00173228 0.00574803,0.00357874 0.0086063,0.00539764z"/>
    <path id="_275495880" class="fil1" d="M6.42393 5.8387c-0.00191339,-0.000925197 -0.0038622,-0.0017874 -0.0057874,-0.00268504 0.00192913,0.000897638 0.00387008,0.00175984 0.0057874,0.00268504z"/>
    <path id="_275495616" class="fil1" d="M6.44123 5.84787c-0.00289764,-0.00164567 -0.00581102,-0.00323622 -0.00874409,-0.00479134 0.00293701,0.00155512 0.00585827,0.00314567 0.00874409,0.00479134z"/>
    <path id="_275495328" class="fil1" d="M6.30519 5.80765c-0.00643701,-0.000389764 -0.0129094,-0.000645669 -0.0194409,-0.000645669 0.00654331,0 0.0130039,0.00026378 0.0194409,0.000645669z"/>
    <path id="_275495544" class="fil1" d="M6.48703 5.87937c-0.000169291,-0.000133858 -0.000326772,-0.000251969 -0.000480315,-0.000389764 0.00015748,0.000137795 0.000311024,0.000255906 0.000480315,0.000389764z"/>
    <path id="_275495592" class="fil1" d="M6.06094 5.90101c0.00438976,-0.00445669 0.0089252,-0.0087874 0.0135709,-0.0129724 -0.00417717,0.00375197 -0.00826378,0.00759449 -0.0122402,0.0115669 -0.00046063,0.000456693 -0.00088189,0.000948819 -0.00133071,0.00140551z"/>
    <path id="_275495856" class="fil1" d="M6.47486 5.86977c-4.72441e-005,-2.75591e-005 -9.84252e-005,-5.51181e-005 -0.000145669,-8.26772e-005 4.72441e-005,2.75591e-005 9.44882e-005,5.51181e-005 0.000145669,8.26772e-005z"/>
    <path id="_275495448" class="fil1" d="M6.39799 5.82752c-0.00138976,-0.000527559 -0.00275984,-0.00109449 -0.00416929,-0.0016063 0.00140945,0.000511811 0.00277559,0.00107874 0.00416929,0.0016063z"/>
    <path id="_275495424" class="fil1" d="M6.34444 5.8125c-0.00423622,-0.000791339 -0.00848819,-0.00153543 -0.0127717,-0.00216142 0.00429134,0.000625984 0.00853543,0.00137795 0.0127717,0.00216142z"/>
    <path id="_275494752" class="fil1" d="M6.28575 5.807c-0.00651969,0 -0.0129764,0.000255906 -0.0194094,0.000645669 0.00642913,-0.00038189 0.0128898,-0.000645669 0.0194094,-0.000645669z"/>
    <path id="_275494560" class="fil1" d="M6.32441 5.80943c-0.00426772,-0.000515748 -0.00853937,-0.000948819 -0.0128622,-0.00129921 0.00432283,0.00034252 0.00859449,0.000783465 0.0128622,0.00129921z"/>
    <path id="_275494488" class="fil1" d="M6.36623 5.81733c-0.00299213,-0.000783465 -0.00601575,-0.00145669 -0.00904331,-0.00215354 0.0030315,0.00069685 0.00605118,0.00138189 0.00904331,0.00215354z"/>
    <path id="_275495016" class="fil1" d="M6.38304 5.82227c-0.00216929,-0.000692913 -0.00433071,-0.00137795 -0.00652362,-0.00202362 0.00219291,0.000645669 0.00435433,0.00133071 0.00652362,0.00202362z"/>
    <path id="_275495040" class="fil1" d="M6.08843 5.87626c-0.00335433,0.00267717 -0.0066378,0.00543307 -0.00987402,0.00825197 0.00322441,-0.00282677 0.00651969,-0.0055748 0.00987402,-0.00825197z"/>
    <path id="_275494416" class="fil1" d="M6.01005 5.96876c-0.00188976,0.00338583 -0.00369685,0.00681496 -0.00547638,0.0102677 0.00495669,-0.00398819 0.00749606,-0.00774409 0.00547638,-0.0102677z"/>
    <path id="_275494368" class="fil1" d="M6.26015 5.80811c-0.00441732,0.000354331 -0.00879921,0.00080315 -0.0131496,0.00133071 0.00435039,-0.000527559 0.00873228,-0.000976378 0.0131496,-0.00133071z"/>
    <path id="_275494728" class="fil1" d="M6.24017 5.8103c-0.00480709,0.000704724 -0.00955906,0.00151575 -0.0142835,0.0024252 0.00472441,-0.000897638 0.00947638,-0.00172835 0.0142835,-0.0024252z"/>
    <path id="_275494776" class="fil1" d="M6.02033 5.9517c-0.00324409,0.00502362 -0.00634252,0.0101457 -0.00930709,0.015378 0.00297244,-0.00523228 0.00606299,-0.0103543 0.00930709,-0.015378z"/>
    <path id="_275495112" class="fil1" d="M6.04536 5.91805c-0.00864567,0.0101417 -0.0166496,0.0208307 -0.0239646,0.0320039 0.00732283,-0.011185 0.0153386,-0.0218622 0.0239646,-0.0320039z"/>
    <path id="_275494440" class="fil1" d="M6.60952 5.54651c0,0.0313346 -0.0254252,0.0568071 -0.0569843,0.0568071l-0.57602 0c-0.0312756,0 -0.0567087,-0.0254724 -0.0567087,-0.0568071l0 -0.577197c0,-0.0313346 0.0254291,-0.0567992 0.0567087,-0.0567992l0.229071 -3.93701e-006c0.222079,0 0.403933,0.182146 0.403933,0.404579l0 0.229421zm0.0670433 -0.689118c-0.133528,-0.134012 -0.318181,-0.217114 -0.520992,-0.217114l-0.380465 0c-0.0195748,0 -0.0385748,0.00249213 -0.0567126,0.00718504l3.93701e-006 1.11981c0,0.0704252 -0.0259409,0.13774 -0.0722559,0.190138 0.0366378,0.0254567 0.0810709,0.0404055 0.128961,0.0404055l0.0997598 0c0.0208622,-0.0682441 0.0581811,-0.129362 0.107244,-0.178512 0.0776496,-0.0777756 0.185201,-0.126185 0.30365,-0.126185 0.118717,0 0.225992,0.0484094 0.303638,0.126185 0.0487756,0.0486654 0.0858268,0.109047 0.10674,0.17648 0.050626,-0.00669685 0.0960827,-0.0301063 0.130713,-0.0645591 0.0410748,-0.041126 0.0664843,-0.0982047 0.0664843,-0.160602l3.93701e-006 -0.391417c0,-0.203126 -0.0829646,-0.388067 -0.216772,-0.521811z"/>
    <path id="_275494032" class="fil1" d="M6.0591 5.90293c-0.00402756,0.00416535 -0.00792913,0.00842913 -0.0117362,0.0128071 0.00380709,-0.00437795 0.00771654,-0.00864173 0.0117362,-0.0128071z"/>
    <path id="_275494128" class="fil1" d="M6.196 5.81999c-0.00276772,0.000826772 -0.00551575,0.00168504 -0.00826378,0.00256693 0.00274803,-0.00088189 0.00549213,-0.00174016 0.00826378,-0.00256693z"/>
    <path id="_275493960" class="fil1" d="M6.15458 5.83551c-0.00235827,0.00106299 -0.0047126,0.00211024 -0.0070315,0.00324409 0.0023189,-0.00113386 0.00467323,-0.00216929 0.0070315,-0.00324409z"/>
    <path id="_275494296" class="fil1" d="M6.13884 5.84322c-0.00256299,0.00135039 -0.0051063,0.00273622 -0.00762598,0.00414567 0.00251969,-0.00141732 0.00506299,-0.00279528 0.00762598,-0.00414567z"/>
    <path id="_275493744" class="fil1" d="M6.21655 5.81469c-0.00387795,0.000870079 -0.00774016,0.00175197 -0.0115748,0.00276772 0.00383465,-0.00101575 0.00769685,-0.00190551 0.0115748,-0.00276772z"/>
    <path id="_275493624" class="fil1" d="M6.12356 5.85177c-0.00367717,0.00219685 -0.00729528,0.00451575 -0.0108701,0.0068622 0.0035748,-0.00234646 0.00719291,-0.00466535 0.0108701,-0.0068622z"/>
    <path id="_275493648" class="fil1" d="M6.10394 5.86461c-0.00322835,0.00226772 -0.00641339,0.0045748 -0.00955118,0.00695669 0.0031378,-0.0023937 0.00633465,-0.00468898 0.00955118,-0.00695669z"/>
    <path id="_275493600" class="fil1" d="M6.17835 5.82573c-0.00247638,0.000889764 -0.00491339,0.00188189 -0.00735827,0.00283465 0.00244882,-0.000952756 0.00487008,-0.00194488 0.00735827,-0.00283465z"/>
    <path id="_275494176" class="fil1" d="M4.05481 5.80945c-0.00437402,-0.000535433 -0.00876378,-0.000984252 -0.013185,-0.00133858 0.00442126,0.000354331 0.00881102,0.00080315 0.013185,0.00133858z"/>
    <path id="_275493672" class="fil1" d="M4.09685 5.81745c-0.00387795,-0.00101575 -0.00779528,-0.00191732 -0.0117283,-0.00279528 0.00393701,0.000870079 0.00785039,0.00177953 0.0117283,0.00279528z"/>
    <path id="_275493480" class="fil1" d="M4.17058 5.84736c-0.00251969,-0.00140945 -0.00506693,-0.00279528 -0.00762992,-0.00414567 0.00256299,0.00135039 0.00511024,0.00272835 0.00762992,0.00414567z"/>
    <path id="_275493000" class="fil1" d="M4.11409 5.82257c-0.00275984,-0.000889764 -0.00553937,-0.00174803 -0.00833071,-0.00258268 0.00279134,0.000834646 0.00557087,0.00169291 0.00833071,0.00258268z"/>
    <path id="_275493168" class="fil1" d="M4.13087 5.82859c-0.00248425,-0.000952756 -0.00493701,-0.00195276 -0.00744882,-0.00285433 0.00251181,0.000889764 0.00496457,0.00190157 0.00744882,0.00285433z"/>
    <path id="_275492976" class="fil1" d="M4.15425 5.83877c-0.00233071,-0.00115748 -0.00469685,-0.00220079 -0.00706693,-0.00327559 0.00237008,0.0010748 0.00473622,0.00211811 0.00706693,0.00327559z"/>
    <path id="_275493408" class="fil1" d="M4.076 5.81274c-0.00476378,-0.000909449 -0.00955906,-0.00173228 -0.0143898,-0.00243701 0.00484252,0.000704724 0.00962598,0.00153543 0.0143898,0.00243701z"/>
    <path id="_275493384" class="fil1" d="M4.25346 5.91468c-0.0033622,-0.0038622 -0.00684252,-0.00764567 -0.0103937,-0.0113504 0.00356299,0.00369291 0.00701969,0.00748819 0.0103937,0.0113504z"/>
    <path id="_275492952" class="fil1" d="M4.01605 5.807c-0.00652756,0 -0.0130039,0.000255906 -0.019437,0.000645669 0.00643307,-0.00038189 0.0128976,-0.000645669 0.019437,-0.000645669z"/>
    <path id="_275493288" class="fil1" d="M4.27911 5.94821c-0.00318504,-0.00479921 -0.0064685,-0.00953937 -0.00990157,-0.0141457 0.00344094,0.00460236 0.00670866,0.00934646 0.00990157,0.0141457z"/>
    <path id="_275492904" class="fil1" d="M4.22729 5.88802c0.00462992,0.00417717 0.00914567,0.00848819 0.0135236,0.012937 -0.000440945,-0.000440945 -0.000850394,-0.00092126 -0.00127953,-0.00135827 -0.00397638,-0.00397244 -0.0080748,-0.00782283 -0.0122441,-0.0115787z"/>
    <path id="_275493504" class="fil1" d="M4.28867 5.96361c-0.00166142,-0.0028622 -0.00338189,-0.00568898 -0.00513386,-0.00848425 0.00175197,0.00279528 0.00346457,0.00562992 0.00513386,0.00848425z"/>
    <path id="_275492328" class="fil1" d="M4.03545 5.80765c-0.00641732,-0.000389764 -0.0128819,-0.000645669 -0.0194055,-0.000645669 0.00653543,0 0.0129882,0.00026378 0.0194055,0.000645669z"/>
    <path id="_275492520" class="fil1" d="M4.26652 5.93062c-0.00297244,-0.00388976 -0.00604331,-0.00772441 -0.00920079,-0.0114685 0.00315748,0.00374409 0.00621654,0.00757874 0.00920079,0.0114685z"/>
    <path id="_275492208" class="fil1" d="M3.88351 5.83607c-0.00187008,0.000874016 -0.00375197,0.00170472 -0.00560236,0.00261417 0.00184252,-0.000909449 0.00373228,-0.00174016 0.00560236,-0.00261417z"/>
    <path id="_275492760" class="fil1" d="M3.92524 5.82026c-0.00214567,0.000641732 -0.00429528,0.00130709 -0.0064252,0.00199213 0.00212992,-0.000673228 0.00427953,-0.00135039 0.0064252,-0.00199213z"/>
    <path id="_275492472" class="fil1" d="M4.18915 5.85865c-0.00359055,-0.00235433 -0.00720866,-0.00467323 -0.0109055,-0.00688189 0.00368898,0.00220866 0.00731496,0.00452756 0.0109055,0.00688189z"/>
    <path id="_275492568" class="fil1" d="M3.94452 5.81519c-0.00298031,0.000704724 -0.00597638,0.00137008 -0.00892913,0.00214173 0.00295276,-0.000771654 0.00594882,-0.00144882 0.00892913,-0.00214173z"/>
    <path id="_275491440" class="fil1" d="M5.59408 4.28858c-0.0419016,-0.041685 -0.0994409,-0.0677047 -0.162866,-0.0677047l-1.94035 0c-0.0634094,0 -0.120953,0.0260197 -0.16285,0.0677047 -0.0416299,0.0419685 -0.0676102,0.0996063 -0.0676102,0.163118l0 1.31557c0,0.0635118 0.0259803,0.12115 0.0676102,0.162831 0.0418976,0.0419685 0.0994409,0.0677126 0.16285,0.0677126l0.114213 0c0.0208071,-0.0682441 0.058063,-0.129362 0.107311,-0.178512 0.0776535,-0.0777756 0.184937,-0.126185 0.303654,-0.126185 0.118445,0 0.225992,0.0484094 0.30365,0.126185 0.049063,0.0491496 0.0863819,0.110268 0.107236,0.178512l1.00428 0c0.0634252,0 0.120965,-0.0257441 0.162866,-0.0677126 0.041626,-0.0416811 0.0676142,-0.0993189 0.0676142,-0.162831l0 -1.31557c0,-0.0635118 -0.0259882,-0.12115 -0.0676142,-0.163118z"/>
    <path id="_275491392" class="fil1" d="M3.99024 5.80813c-0.00430315,0.00034252 -0.00858268,0.000775591 -0.0128307,0.00129134 0.00424803,-0.000515748 0.00852756,-0.000956693 0.0128307,-0.00129134z"/>
    <path id="_275491920" class="fil1" d="M3.97013 5.81033c-0.00427953,0.000625984 -0.00850787,0.00137008 -0.0127205,0.00214961 0.0042126,-0.000779528 0.00844094,-0.00152362 0.0127205,-0.00214961z"/>
    <path id="_275491584" class="fil1" d="M3.90794 5.82593c-0.00132677,0.000488189 -0.00263386,0.00102756 -0.00394882,0.00152362 0.00131496,-0.000496063 0.00261417,-0.00103543 0.00394882,-0.00152362z"/>
    <path id="_275491608" class="fil1" d="M4.22326 5.88452c-0.00324409,-0.00281496 -0.0065315,-0.00558268 -0.00988976,-0.00825984 0.00335039,0.00267717 0.00664567,0.00543307 0.00988976,0.00825984z"/>
    <path id="_275491632" class="fil1" d="M3.81522 5.87901c-0.000133858,0.000110236 -0.000267717,0.000216535 -0.000401575,0.000322835 0.000133858,-0.000106299 0.000267717,-0.000212598 0.000401575,-0.000322835z"/>
    <path id="_275491992" class="fil1" d="M3.86929 5.8431c-0.00293307,0.00154331 -0.00582677,0.00312598 -0.00870079,0.00476378 0.00286614,-0.0016378 0.00576772,-0.00322047 0.00870079,-0.00476378z"/>
    <path id="_275491680" class="fil1" d="M4.20741 5.87157c-0.0031378,-0.0023937 -0.00633858,-0.00468898 -0.00955512,-0.0069685 0.00321654,0.00227953 0.0064252,0.0045748 0.00955512,0.0069685z"/>
    <path id="_275491368" class="fil1" d="M3.85427 5.8515c-0.00291339,0.00174016 -0.00576772,0.00357087 -0.00861417,0.00539764 0.00285433,-0.0018189 0.00569291,-0.00366535 0.00861417,-0.00539764z"/>
    <path id="_275491968" class="fil1" d="M3.82699 5.86975c-1.1811e-005,7.87402e-006 -1.9685e-005,7.87402e-006 -2.75591e-005,7.87402e-006 7.87402e-006,0 1.5748e-005,0 2.75591e-005,-7.87402e-006z"/>
    <path id="_275490576" class="fil1" d="M6.28575 5.76278c-0.0993307,0 -0.189433,0.0401732 -0.254713,0.105539 -0.0232441,0.0232795 -0.0432953,0.0500669 -0.0595315,0.0787717 0.00223228,0.00286614 -0.000633858,0.00733465 -0.00637008,0.0117913 -0.0251496,0.0494331 -0.0394803,0.105236 -0.0394803,0.164551 0,0.0998031 0.040126,0.189728 0.105382,0.255094 0.0652795,0.065378 0.155382,0.105563 0.254713,0.105563 0.0996575,0 0.189437,-0.040185 0.254705,-0.105563 0.0652795,-0.0653661 0.105382,-0.155291 0.105382,-0.255094 3.93701e-006,-0.0634724 -0.0162362,-0.122776 -0.0448819,-0.17476 -0.000645669,-0.000948819 -0.00127559,-0.00190551 -0.0016063,-0.00318898 -0.0162362,-0.028378 -0.0359724,-0.0542008 -0.0588937,-0.0771654 -0.0649528,-0.0650551 -0.155047,-0.105539 -0.25439,-0.105539 0,0 0,0 -0.000314961,0l0 0z"/>
    <path id="_275490864" class="fil1" d="M4.27076 6.37853c0.0649449,-0.0653661 0.105382,-0.155291 0.105382,-0.255094 0,-0.0634724 -0.0162362,-0.123087 -0.0449094,-0.17476 -0.000311024,-0.000622047 -0.000625984,-0.000948819 -0.000956693,-0.00127165 -0.0162362,-0.0290157 -0.0362835,-0.0558031 -0.0595157,-0.0790827 -0.0652795,-0.0653661 -0.155382,-0.105539 -0.254717,-0.105539 -0.0996575,0 -0.189437,0.0401732 -0.254709,0.105539 -0.0229173,0.0229646 -0.0426535,0.0487874 -0.0588898,0.0771654 -0.000330709,0.00128346 -0.00096063,0.00224016 -0.00160236,0.00318898 -0.0286535,0.0519843 -0.0448898,0.111287 -0.0448898,0.17476 0,0.0998031 0.0401142,0.189728 0.105382,0.255094 0.0652717,0.065378 0.155051,0.105563 0.254709,0.105563 0.0993346,0 0.189437,-0.040185 0.254717,-0.105563l0 0z"/>
    <path id="_275490768" class="fil1" d="M5.77734 5.88421l-0.0840197 0c-0.0142244,0.0317638 -0.0341693,0.0610197 -0.0592992,0.0861772 -0.00995276,0.0099685 -0.0205512,0.019122 -0.031685,0.0274213l0.175004 0c0.0312835,0 0.0567047,-0.0254567 0.0567047,-0.0567953 0,-0.0313346 -0.0254213,-0.0568031 -0.0567047,-0.0568031z"/>
   </g>
  </g>
 </g>
</svg>
