<?xml version="1.0" encoding="utf-8"?>
<!-- Generator: Adobe Illustrator 17.0.0, SVG Export Plug-In . SVG Version: 6.00 Build 0)  -->
<!DOCTYPE svg PUBLIC "-//W3C//DTD SVG 1.1//EN" "http://www.w3.org/Graphics/SVG/1.1/DTD/svg11.dtd">
<svg version="1.1" id="Camada_1" xmlns="http://www.w3.org/2000/svg" xmlns:xlink="http://www.w3.org/1999/xlink" x="0px" y="0px"
	 width="730px" height="646px" viewBox="0 0 730 646" enable-background="new 0 0 730 646" xml:space="preserve">
<circle fill="#76AADB" cx="373.726" cy="342.268" r="254.302"/>
<g>
	<g>
		<path fill="#FFFFFF" d="M622.361-63.373c-9.14,0-16.576-7.81-16.576-17.409v-225.23c0-9.6,7.436-17.409,16.576-17.409h390.56
			c9.141,0,16.576,7.81,16.576,17.409v225.23c0,9.6-7.435,17.409-16.576,17.409H622.361z"/>
		<path fill="#4A72B2" d="M1012.92-319.422c6.946,0,12.576,6.004,12.576,13.409v225.23c0,7.406-5.63,13.409-12.576,13.409H622.361
			c-6.946,0-12.576-6.004-12.576-13.409v-225.23c0-7.406,5.631-13.409,12.576-13.409H1012.92 M1012.92-327.422H622.361
			c-11.346,0-20.576,9.604-20.576,21.409v225.23c0,11.805,9.23,21.409,20.576,21.409h390.559c11.346,0,20.576-9.604,20.576-21.409
			v-225.23C1033.496-317.818,1024.266-327.422,1012.92-327.422L1012.92-327.422z"/>
	</g>
	<g>
		<rect x="641.413" y="-288.842" fill="#A3BD31" width="352.456" height="94.892"/>
		<rect x="869.527" y="-174.785" fill="#A3BD31" width="124.341" height="78.531"/>
		<rect x="641.413" y="-174.785" fill="#4A72B2" width="202.872" height="16.828"/>
		<rect x="641.413" y="-113.081" fill="#4A72B2" width="202.872" height="16.828"/>
		<rect x="641.413" y="-143.933" fill="#4A72B2" width="202.872" height="16.828"/>
	</g>
	<g>
		<path fill="#FFFFFF" d="M1103.061-57.344c-10.195,0-18.49-8.295-18.49-18.49v-233.428c0-10.196,8.295-18.491,18.49-18.491h118.608
			c10.195,0,18.49,8.295,18.49,18.491v233.428c0,10.195-8.295,18.49-18.49,18.49H1103.061z"/>
		<path fill="#4A72B2" d="M1221.669-323.752c8.003,0,14.49,6.488,14.49,14.491v233.428c0,8.003-6.488,14.491-14.49,14.491h-118.608
			c-8.003,0-14.491-6.488-14.491-14.491v-233.428c0-8.003,6.488-14.491,14.491-14.491H1221.669 M1221.669-331.752h-118.608
			c-12.401,0-22.491,10.089-22.491,22.491v233.428c0,12.401,10.089,22.491,22.491,22.491h118.608
			c12.401,0,22.49-10.089,22.49-22.491v-233.428C1244.159-321.663,1234.07-331.752,1221.669-331.752L1221.669-331.752z"/>
	</g>
	<path fill="#4A72B2" d="M933.1-19.647c0,2.788-4.521,5.048-10.097,5.048H712.278c-5.576,0-10.097-2.26-10.097-5.048v-1.589
		c0-2.788,4.521-5.048,10.097-5.048h210.725c5.576,0,10.097,2.26,10.097,5.048V-19.647z"/>
	<path fill="#4A72B2" d="M834.859-34.792c0,11.153-0.674,20.194-1.506,20.194h-31.426c-0.832,0-1.506-9.041-1.506-20.194v-6.357
		c0-11.153,0.674-20.194,1.506-20.194h31.426c0.832,0,1.506,9.041,1.506,20.194V-34.792z"/>
	<rect x="1100.195" y="-279.845" fill="#A3BD31" width="124.341" height="133.987"/>
	<rect x="1100.194" y="-307.518" fill="#4A72B2" width="55.395" height="13.497"/>
	<rect x="1100.194" y="-127.18" fill="#4A72B2" width="55.395" height="43.777"/>
	<rect x="1169.14" y="-127.18" fill="#4A72B2" width="55.395" height="43.777"/>
</g>
<g>
	<polygon fill="#A3BD31" points="525,518.201 225,518.201 268.726,263.5 476.392,263.5 	"/>
	<path fill="none" stroke="#4A72B2" stroke-width="10" stroke-miterlimit="10" d="M320.789,293.445V210.33
		c0,0,0-43.994,53.406-43.994c52.466,0,52.466,43.994,52.466,43.994v83.115"/>
</g>
<polygon fill="#FFFFFF" stroke="#4A72B2" stroke-width="5" stroke-miterlimit="10" points="399.109,342.268 399.109,526.759 
	450.106,475.762 481.596,539.357 503.5,524.664 477.326,459.034 538.602,440.813 "/>
</svg>
