<svg xmlns="http://www.w3.org/2000/svg" width="203.705" height="55.504" viewBox="0 0 203.705 55.504">
  <g id="logo_white" transform="translate(-190 6263)">
    <g id="Grupo_22" data-name="Grupo 22" transform="translate(-604.956 -6712.714)">
      <path id="Caminho_740" data-name="Caminho 740" d="M859.417,479.6h-20.6q0,4.321,1.78,6.389,2.226,2.13,7.63,2a59.4,59.4,0,0,0,10.887-.9v6.014a66.587,66.587,0,0,1-11.586,1.087q-9.411,0-12.908-3.632-3.561-3.7-3.561-12.841,0-10.21,4.006-13.593a11.572,11.572,0,0,1,4.578-2.443,25.391,25.391,0,0,1,6.486-.689q6.93,0,10.27,3.069t3.338,10.4q0,1.5-.318,5.137m-20.475-5.262h13.29a9.218,9.218,0,0,0,.063-1.378q0-5.7-6.168-5.7a7.321,7.321,0,0,0-5.15,1.6q-1.718,1.6-2.035,5.481" fill="#fff"/>
      <path id="Caminho_741" data-name="Caminho 741" d="M870.778,462.11l.508,1.59a20.085,20.085,0,0,1,8.966-2.162q7.25,0,9.983,2.861,2.8,2.925,2.8,9.729V494.2h-7.757V475.59q0-4.131-1.145-5.849-1.145-1.781-5.024-1.78a21.982,21.982,0,0,0-6.74,1.08V494.2H864.61V462.11Z" fill="#fff"/>
      <path id="Caminho_742" data-name="Caminho 742" d="M928.987,474.025v7.142a17.82,17.82,0,0,1-1.08,6.514,8.948,8.948,0,0,1-2.353,3.32q-3.753,3.2-11.763,3.194-8.714,0-12.272-3.7a10.915,10.915,0,0,1-2.544-4.761,21.18,21.18,0,0,1-.445-4.572v-7.142a17.59,17.59,0,0,1,1.081-6.451,8.647,8.647,0,0,1,2.352-3.32Q905.714,461,913.791,461q8.775,0,12.208,3.758a9.11,9.11,0,0,1,2.543,4.823,20.057,20.057,0,0,1,.445,4.447m-7.757,7.142v-7.142q0-3.882-1.653-5.293t-5.786-1.409q-4.2,0-5.851,1.409t-1.652,5.293v7.142q0,3.884,1.685,5.324t5.818,1.441q4.131,0,5.754-1.441t1.685-5.324" fill="#fff"/>
      <path id="Caminho_743" data-name="Caminho 743" d="M949.669,460.946q7.566.127,10.556,3.639,3.051,3.451,3.052,9.472v6.713a17.437,17.437,0,0,1-1.4,7.466q-2.862,5.961-13.417,5.959a99.6,99.6,0,0,1-14.243-.94V449.714h7.757v12.3a29.435,29.435,0,0,1,7.694-1.067m-7.694,7.089v19.511a61.2,61.2,0,0,0,6.613.313q3.942,0,5.4-1.442t1.462-5.271v-7.089q0-3.951-1.494-5.363t-5.373-1.411a26.151,26.151,0,0,0-6.613.752" fill="#fff"/>
      <path id="Caminho_744" data-name="Caminho 744" d="M965.469,505.218v-5.981q5.469-.06,8.2-1.33,2.67-1.148,4.387-5.316L965.088,461.6h8.647l8.14,23.382H982L989.95,461.6h8.711l-12.018,29.362a28.126,28.126,0,0,1-4.768,9.063,12.645,12.645,0,0,1-6.009,3.806,42.057,42.057,0,0,1-10.4,1.39" fill="#fff"/>
      <rect id="Retângulo_13" data-name="Retângulo 13" width="8.497" height="44.136" transform="translate(794.956 449.714)" fill="#fff"/>
      <path id="Caminho_745" data-name="Caminho 745" d="M829.8,462.11H819.383l-15.93,15.93,15.81,15.809h10.419l-15.81-15.809Z" fill="#fff"/>
    </g>
  </g>
</svg>
