<svg xmlns="http://www.w3.org/2000/svg" xmlns:xlink="http://www.w3.org/1999/xlink" width="1004" zoomAndPan="magnify" viewBox="0 0 753 443.249995" height="591" preserveAspectRatio="xMidYMid meet" version="1.0"><defs><clipPath id="02bbeaa96c"><path d="M 0.636719 0 L 752.363281 0 L 752.363281 442.5 L 0.636719 442.5 Z M 0.636719 0 " clip-rule="nonzero"/></clipPath><clipPath id="4dcd12e495"><path d="M 101.003906 12 L 652 12 L 652 432.660156 L 101.003906 432.660156 Z M 101.003906 12 " clip-rule="nonzero"/></clipPath></defs><g clip-path="url(#02bbeaa96c)"><path fill="#ffffff" d="M 0.636719 0 L 752.363281 0 L 752.363281 449.988281 L 0.636719 449.988281 Z M 0.636719 0 " fill-opacity="1" fill-rule="nonzero"/><path fill="#ffffff" d="M 0.636719 0 L 752.363281 0 L 752.363281 442.5 L 0.636719 442.5 Z M 0.636719 0 " fill-opacity="1" fill-rule="nonzero"/><path fill="#ffffff" d="M 0.636719 0 L 752.363281 0 L 752.363281 442.5 L 0.636719 442.5 Z M 0.636719 0 " fill-opacity="1" fill-rule="nonzero"/></g><path fill="#3aaded" d="M 376.410156 393.761719 C 376.410156 393.957031 376.402344 394.15625 376.398438 394.351562 C 376.386719 394.75 376.355469 395.152344 376.316406 395.542969 C 376.355469 395.144531 376.386719 394.75 376.398438 394.351562 C 376.402344 394.15625 376.410156 393.957031 376.410156 393.761719 " fill-opacity="1" fill-rule="nonzero"/><g clip-path="url(#4dcd12e495)"><path fill="#3aaded" d="M 545.542969 271.621094 C 554.089844 271.621094 561.097656 264.621094 561.097656 256.078125 C 561.097656 247.539062 554.089844 240.53125 545.542969 240.53125 C 536.992188 240.53125 529.992188 247.539062 529.992188 256.078125 C 529.992188 264.621094 536.992188 271.621094 545.542969 271.621094 Z M 545.542969 276.503906 C 556.789062 276.503906 565.984375 267.316406 565.984375 256.078125 C 565.984375 244.835938 556.789062 235.652344 545.542969 235.652344 C 534.296875 235.652344 525.171875 244.835938 525.171875 256.078125 C 525.171875 267.316406 534.296875 276.503906 545.542969 276.503906 Z M 510.191406 308.296875 C 518.746094 308.296875 525.683594 301.363281 525.683594 292.753906 C 525.683594 284.210938 518.746094 277.273438 510.191406 277.273438 C 501.648438 277.273438 494.640625 284.210938 494.640625 292.753906 C 494.640625 301.363281 501.648438 308.296875 510.191406 308.296875 Z M 510.191406 313.175781 C 521.445312 313.175781 530.566406 303.992188 530.566406 292.753906 C 530.566406 281.578125 521.445312 272.390625 510.191406 272.390625 C 498.949219 272.390625 489.753906 281.578125 489.753906 292.753906 C 489.753906 303.992188 498.949219 313.175781 510.191406 313.175781 Z M 346.949219 319.152344 C 355.5 319.152344 362.4375 312.214844 362.4375 303.671875 C 362.4375 295.128906 355.5 288.128906 346.949219 288.128906 C 338.402344 288.128906 331.394531 295.128906 331.394531 303.671875 C 331.394531 312.214844 338.402344 319.152344 346.949219 319.152344 Z M 346.949219 324.035156 C 358.195312 324.035156 367.324219 314.914062 367.324219 303.671875 C 367.324219 292.429688 358.195312 283.25 346.949219 283.25 C 335.699219 283.25 326.511719 292.429688 326.511719 303.671875 C 326.511719 314.914062 335.699219 324.035156 346.949219 324.035156 Z M 276.1875 291.980469 C 284.734375 291.980469 291.742188 285.046875 291.742188 276.4375 C 291.742188 267.898438 284.734375 260.957031 276.1875 260.957031 C 267.640625 260.957031 260.636719 267.898438 260.636719 276.4375 C 260.636719 285.046875 267.640625 291.980469 276.1875 291.980469 Z M 276.1875 296.863281 C 287.433594 296.863281 296.625 287.675781 296.625 276.4375 C 296.625 265.261719 287.433594 256.078125 276.1875 256.078125 C 264.941406 256.078125 255.8125 265.261719 255.8125 276.4375 C 255.8125 287.675781 264.941406 296.863281 276.1875 296.863281 Z M 213.589844 272.96875 C 222.199219 272.96875 229.140625 265.96875 229.140625 257.429688 C 229.140625 248.886719 222.199219 241.886719 213.589844 241.886719 C 205.039062 241.886719 198.101562 248.886719 198.101562 257.429688 C 198.101562 265.96875 205.039062 272.96875 213.589844 272.96875 Z M 213.589844 277.851562 C 224.835938 277.851562 234.027344 268.667969 234.027344 257.429688 C 234.027344 246.183594 224.835938 237.066406 213.589844 237.066406 C 202.40625 237.066406 193.214844 246.183594 193.214844 257.429688 C 193.214844 268.667969 202.40625 277.851562 213.589844 277.851562 Z M 329.277344 218.566406 C 337.824219 218.566406 344.761719 211.632812 344.761719 203.023438 C 344.761719 194.484375 337.824219 187.542969 329.277344 187.542969 C 320.660156 187.542969 313.722656 194.484375 313.722656 203.023438 C 313.722656 211.632812 320.660156 218.566406 329.277344 218.566406 Z M 329.277344 223.449219 C 340.519531 223.449219 349.648438 214.265625 349.648438 203.023438 C 349.648438 191.851562 340.519531 182.664062 329.277344 182.664062 C 318.027344 182.664062 308.835938 191.851562 308.835938 203.023438 C 308.835938 214.265625 318.027344 223.449219 329.277344 223.449219 Z M 446.246094 248.496094 C 454.792969 248.496094 461.800781 241.496094 461.800781 232.957031 C 461.800781 224.414062 454.792969 217.414062 446.246094 217.414062 C 437.695312 217.414062 430.691406 224.414062 430.691406 232.957031 C 430.691406 241.496094 437.695312 248.496094 446.246094 248.496094 Z M 446.246094 253.378906 C 457.492188 253.378906 466.6875 244.195312 466.6875 232.957031 C 466.6875 221.710938 457.492188 212.597656 446.246094 212.597656 C 435 212.597656 425.808594 221.710938 425.808594 232.957031 C 425.808594 244.195312 435 253.378906 446.246094 253.378906 Z M 546.878906 171.734375 C 558.816406 171.734375 568.59375 161.960938 568.59375 150.039062 C 568.59375 138.113281 558.816406 128.335938 546.878906 128.335938 C 534.945312 128.335938 525.253906 138.113281 525.253906 150.039062 C 525.253906 161.960938 534.945312 171.734375 546.878906 171.734375 Z M 644.730469 268.96875 C 644.042969 261.847656 639.910156 250.71875 637.582031 245.265625 C 636.542969 242.726562 636.5625 241.589844 636.84375 239.769531 C 636.921875 239.273438 637.015625 238.648438 637.066406 237.722656 C 637.101562 237.199219 637.109375 236.707031 637.121094 236.199219 L 512.160156 294.324219 L 503.644531 334.082031 C 505.226562 334.984375 506.886719 336.589844 508.828125 338.480469 C 510.277344 339.898438 511.777344 341.355469 512.914062 342.179688 C 521.964844 348.785156 525.003906 351 535.101562 355.027344 C 535.75 355.269531 536.246094 355.5625 536.613281 355.78125 C 536.953125 355.980469 537.136719 356.09375 537.589844 356.234375 L 546.820312 358.910156 C 557.265625 361.328125 568.683594 361.480469 578.800781 359.304688 L 579.21875 359.214844 C 583.066406 358.433594 586.109375 357.820312 589.621094 356.535156 C 590.394531 356.234375 591.234375 355.949219 592.066406 355.664062 C 592.90625 355.375 593.742188 355.09375 594.546875 354.769531 L 595.054688 354.582031 C 595.851562 354.289062 596.207031 354.164062 596.949219 353.816406 C 601.710938 351.777344 606.542969 349.066406 610.648438 346.140625 L 611.574219 345.464844 C 620.378906 339.019531 631.542969 328.023438 636.492188 316.472656 C 636.980469 315.300781 637.574219 314.125 638.167969 312.9375 C 638.96875 311.355469 639.722656 309.863281 640.257812 308.289062 C 642.183594 302.375 643.507812 296.957031 644.300781 291.757812 C 645.40625 284.136719 645.53125 277.53125 644.730469 268.96875 Z M 507.550781 294.351562 L 369.957031 256.070312 L 350.101562 302.042969 L 499.03125 333.878906 C 499.054688 333.867188 499.070312 333.855469 499.09375 333.84375 Z M 496.539062 337.945312 L 348.824219 306.375 L 341.257812 357.644531 C 343.1875 358.96875 345.039062 361.445312 347.277344 364.632812 C 347.785156 365.347656 348.230469 365.992188 348.582031 366.4375 C 352.792969 371.832031 359.257812 377.652344 365.460938 381.640625 L 376.324219 387.921875 C 382.710938 391.652344 391.558594 394.367188 402.625 396.003906 C 418.441406 398.414062 436.167969 395.554688 452.542969 387.980469 C 459.511719 384.789062 466.863281 379.804688 473.253906 373.949219 C 477.335938 370.242188 480.585938 366.601562 483.796875 362.113281 C 487.460938 357.132812 490.183594 353.015625 492.550781 347.820312 C 492.867188 347.117188 493.121094 346.664062 493.355469 346.253906 C 493.515625 345.972656 493.664062 345.71875 493.832031 345.28125 C 493.921875 345.066406 494.097656 344.554688 494.34375 343.867188 C 495.285156 341.238281 495.980469 339.335938 496.539062 337.945312 Z M 344.460938 305.121094 L 274.03125 278.019531 L 271.441406 236.222656 L 215.796875 258.953125 L 211.875 400.152344 L 234.105469 366.785156 L 336.019531 357.847656 C 336.257812 357.644531 336.507812 357.457031 336.765625 357.273438 Z M 332.519531 362.667969 L 236.648438 371.070312 L 212.855469 406.800781 C 230.285156 424.214844 247.757812 430.09375 263.449219 423.769531 C 278.054688 417.875 287.789062 402.117188 287.820312 394.285156 L 287.824219 393.238281 L 288.449219 392.390625 C 290.457031 389.671875 291.394531 388.054688 291.953125 387.09375 C 293.390625 384.617188 294.257812 384.039062 297.113281 383.644531 C 298.128906 383.511719 299.664062 383.296875 302.257812 382.695312 C 309.386719 381.003906 315.96875 377.960938 321.277344 373.894531 C 321.722656 373.546875 322.128906 373.253906 322.503906 372.984375 C 322.988281 372.628906 323.414062 372.332031 323.878906 371.902344 C 327.539062 368.550781 330.246094 365.640625 332.519531 362.667969 Z M 211.273438 259.753906 L 130.589844 262.355469 C 129.902344 263.394531 129.101562 264.234375 128.191406 265.164062 C 125.9375 267.480469 122.527344 270.976562 117.792969 281.308594 C 114.488281 288.621094 112.980469 300.757812 114.375 308.914062 C 115.101562 313.046875 116.035156 316.058594 117.21875 319.875 L 117.554688 320.964844 C 118.363281 323.546875 120.898438 328.058594 122.714844 330.5625 L 132.398438 341.558594 C 133.515625 342.570312 134.492188 343.261719 135.355469 343.878906 C 137.351562 345.289062 139.613281 346.894531 139.613281 350.6875 C 139.410156 362.039062 142.058594 372.53125 147.070312 380.289062 L 153.988281 389.554688 C 157.675781 393.601562 164.949219 399.296875 170.398438 401.542969 C 179.351562 405.152344 192.863281 408.046875 201.335938 405.835938 L 202.398438 405.53125 C 203.859375 405.105469 205.464844 404.667969 207.25 404.582031 Z M 125.652344 252.871094 C 125.886719 253.03125 126.265625 253.214844 126.664062 253.414062 C 127.65625 253.917969 128.851562 254.539062 129.832031 255.429688 L 228.144531 159.414062 L 133.050781 180.6875 L 132.835938 180.96875 C 132.1875 181.804688 131.539062 182.226562 131.066406 182.539062 C 130.941406 182.613281 130.800781 182.707031 130.636719 182.828125 L 130.3125 183.03125 C 129.929688 183.242188 129.648438 183.390625 129.410156 183.511719 C 128.992188 183.722656 128.929688 183.757812 128.464844 184.132812 C 127.515625 184.902344 126.699219 185.679688 126.039062 186.4375 L 125.726562 186.796875 L 125.320312 187.054688 C 114.148438 194.082031 107.476562 206.15625 107.476562 219.335938 C 107.476562 230.628906 112.402344 241.25 120.988281 248.484375 L 121.398438 248.902344 C 122.65625 250.425781 124.125 251.800781 125.652344 252.871094 Z M 133.363281 176.011719 L 233.121094 153.699219 L 233.003906 60.703125 C 229.667969 60.449219 226.359375 61.554688 223.816406 63.804688 L 222.6875 64.589844 L 221.988281 64.703125 C 208.496094 66.796875 197.074219 76.128906 192.171875 89.0625 L 191.886719 89.8125 L 191.285156 90.339844 C 187.53125 93.632812 184.339844 97.808594 181.804688 102.753906 C 181.558594 103.242188 181.34375 103.660156 181.1875 104.085938 L 180.753906 105.238281 L 179.660156 105.808594 C 170.082031 110.785156 160.953125 118.242188 153.253906 127.378906 C 140.332031 142.730469 133.03125 160.683594 133.363281 176.011719 Z M 133.882812 257.753906 L 213.113281 255.195312 L 272.523438 230.921875 L 324.410156 203.082031 L 235.796875 158.234375 Z M 321.726562 209.628906 L 275.824219 234.257812 L 278.046875 270.03125 Z M 279.722656 275.390625 L 345.738281 300.796875 L 366.078125 253.710938 L 329.34375 206.765625 Z M 324.027344 122.378906 C 322.988281 123.460938 322.074219 124.660156 321.292969 125.949219 L 237.503906 62.28125 L 237.621094 152.796875 L 318.421875 137.894531 C 318.535156 139.417969 318.796875 140.898438 319.226562 142.3125 L 242.335938 156.496094 L 327.492188 199.601562 L 333.695312 156.175781 C 335.125 156.542969 336.613281 156.765625 338.148438 156.816406 L 331.636719 202.394531 L 369.53125 250.832031 L 441.644531 231.847656 L 352.34375 151.621094 C 353.460938 150.613281 354.46875 149.5 355.34375 148.277344 L 445.152344 228.945312 L 467.960938 156.441406 C 469.324219 157.046875 470.757812 157.507812 472.253906 157.804688 L 450.667969 226.402344 L 529.835938 161.171875 C 530.660156 162.4375 531.621094 163.601562 532.691406 164.648438 L 451.1875 231.800781 L 544.042969 253.425781 L 585.089844 127.027344 L 564.976562 140.570312 C 564.277344 139.234375 563.429688 137.988281 562.457031 136.847656 L 585.996094 120.992188 C 585.503906 103.570312 570.335938 83.582031 548.023438 71.070312 C 533.21875 62.773438 517.125 58.789062 503.238281 59.84375 L 539.652344 130.96875 C 538.242188 131.507812 536.898438 132.191406 535.652344 133.019531 L 499.863281 63.132812 L 483.917969 118.9375 C 482.546875 118.375 481.09375 117.96875 479.589844 117.714844 L 496.46875 58.65625 L 496.3125 58.285156 C 493.492188 51.617188 488.8125 45.875 482.78125 41.683594 C 471.898438 34.195312 457.851562 32.914062 445.722656 38.167969 L 471.992188 117.851562 C 470.503906 118.164062 469.082031 118.652344 467.726562 119.273438 L 441.632812 40.136719 L 354.890625 123.984375 C 353.96875 122.792969 352.933594 121.699219 351.777344 120.738281 L 438.878906 36.542969 C 436.769531 34.109375 434.40625 31.976562 431.792969 30.214844 C 419.703125 21.835938 404.203125 21.089844 391.308594 28.238281 L 390.332031 28.785156 L 387.933594 28.386719 L 387.242188 27.777344 C 386.359375 27 385.429688 26.269531 384.140625 25.332031 C 370.960938 16.289062 353.277344 16.4375 340.203125 25.734375 L 339.566406 26.1875 L 338.796875 26.296875 C 337.34375 26.511719 336.109375 26.75 334.90625 27.0625 C 333.425781 27.441406 332.429688 27.714844 331.695312 27.925781 L 339.292969 116.089844 C 339.121094 116.082031 338.957031 116.058594 338.789062 116.058594 C 337.425781 116.058594 336.097656 116.199219 334.808594 116.449219 L 327.191406 28.09375 C 314.242188 24.382812 298.707031 24.59375 283.265625 28.792969 C 263.859375 34.066406 247.503906 44.835938 239.03125 57.792969 Z M 541.175781 257.371094 L 447.769531 235.617188 L 447.339844 236.960938 L 445.648438 235.4375 L 377.273438 253.445312 L 509.503906 290.230469 Z M 520.1875 285.625 L 617.8125 240.214844 L 546.714844 258.101562 Z M 590.449219 125.109375 L 548.941406 252.910156 L 637.445312 230.648438 C 644.023438 213.992188 638.378906 195.351562 623.609375 185.179688 C 622.347656 184.25 621.011719 183.4375 619.324219 182.5625 L 618.769531 182.273438 L 617.929688 181.273438 C 617.761719 181.0625 617.585938 180.84375 617.375 180.632812 L 615.847656 179.097656 L 616.6875 177.109375 C 623.730469 160.503906 618.046875 141.019531 603.167969 130.78125 C 599.261719 128.054688 594.980469 126.183594 590.449219 125.109375 Z M 650.65625 292.699219 C 649.808594 298.273438 648.402344 304.027344 646.355469 310.320312 C 645.660156 312.355469 644.769531 314.117188 643.90625 315.832031 C 643.375 316.882812 642.847656 317.917969 642.40625 318.976562 C 637.769531 329.820312 627.664062 341.648438 615.375 350.644531 L 614.410156 351.347656 C 609.910156 354.558594 604.65625 357.503906 599.574219 359.679688 C 598.726562 360.074219 598.28125 360.238281 597.269531 360.613281 L 596.851562 360.769531 C 596.03125 361.09375 595.097656 361.417969 594.148438 361.738281 C 593.394531 361.996094 592.628906 362.261719 591.882812 362.550781 C 587.863281 364.023438 584.449219 364.707031 580.496094 365.515625 L 580.117188 365.585938 C 569.128906 367.953125 556.71875 367.792969 545.203125 365.121094 L 535.71875 362.378906 C 534.480469 361.984375 533.816406 361.589844 533.328125 361.304688 C 533.167969 361.203125 533.015625 361.105469 532.785156 361.015625 C 521.867188 356.664062 518.144531 353.945312 509.132812 347.371094 C 507.628906 346.285156 505.957031 344.65625 504.339844 343.078125 C 503.710938 342.472656 502.9375 341.714844 502.226562 341.054688 C 501.53125 342.84375 500.746094 345.042969 500.398438 346.023438 C 500.113281 346.824219 499.902344 347.417969 499.8125 347.640625 C 499.507812 348.425781 499.242188 348.894531 498.949219 349.417969 C 498.792969 349.691406 498.625 349.988281 498.410156 350.464844 C 495.804688 356.179688 492.886719 360.597656 489.007812 365.878906 C 485.582031 370.660156 481.953125 374.742188 477.585938 378.695312 C 470.730469 384.980469 462.785156 390.355469 455.234375 393.816406 C 437.742188 401.914062 418.714844 404.949219 401.675781 402.355469 C 389.804688 400.601562 380.179688 397.613281 373.09375 393.472656 L 362.113281 387.121094 C 355.214844 382.695312 348.140625 376.3125 343.515625 370.390625 C 343.121094 369.878906 342.601562 369.148438 342.019531 368.328125 C 341.382812 367.417969 340.21875 365.761719 339.175781 364.496094 L 338.894531 364.886719 C 336.140625 368.78125 332.847656 372.402344 328.230469 376.628906 C 327.539062 377.269531 326.890625 377.738281 326.269531 378.1875 C 325.949219 378.417969 325.601562 378.671875 325.203125 378.976562 C 319.167969 383.605469 311.746094 387.046875 303.730469 388.945312 C 300.832031 389.621094 299.046875 389.867188 297.980469 390.007812 C 297.867188 390.027344 297.761719 390.039062 297.664062 390.058594 C 297.617188 390.132812 297.566406 390.21875 297.515625 390.316406 C 296.945312 391.296875 296.027344 392.878906 294.203125 395.40625 C 293.433594 405.613281 282.765625 422.898438 265.855469 429.71875 C 261.589844 431.441406 256.5 432.6875 250.703125 432.6875 C 239.296875 432.6875 225.15625 427.824219 209.222656 412.25 L 206.945312 415.675781 L 207.074219 411.082031 C 206.183594 411.191406 205.257812 411.394531 204.191406 411.699219 C 203.792969 411.816406 203.390625 411.933594 202.984375 412.039062 C 193.027344 414.644531 178.230469 411.628906 167.972656 407.488281 C 161.539062 404.84375 153.335938 398.429688 149.117188 393.75 L 148.925781 393.523438 L 141.792969 383.945312 C 135.972656 374.953125 132.960938 363.179688 133.1875 350.628906 C 133.1875 350.40625 133.152344 350.3125 133.152344 350.3125 C 133.027344 350.101562 132.222656 349.53125 131.636719 349.113281 C 130.636719 348.40625 129.394531 347.523438 127.929688 346.179688 L 127.6875 345.9375 L 117.609375 334.46875 C 115.457031 331.53125 112.476562 326.261719 111.414062 322.875 L 111.078125 321.777344 C 109.878906 317.90625 108.839844 314.558594 108.039062 310.007812 C 106.433594 300.597656 108.113281 287.117188 111.941406 278.648438 C 117.148438 267.289062 121.023438 263.3125 123.59375 260.683594 C 123.992188 260.277344 124.335938 259.917969 124.625 259.59375 C 124.316406 259.421875 123.992188 259.257812 123.757812 259.140625 C 123.082031 258.800781 122.460938 258.46875 121.996094 258.152344 C 120.007812 256.757812 118.21875 255.101562 116.625 253.207031 C 106.722656 244.753906 101.054688 232.429688 101.054688 219.335938 C 101.054688 204.09375 108.691406 190.121094 121.503906 181.867188 C 122.34375 180.949219 123.316406 180.035156 124.410156 179.144531 C 125.335938 178.390625 125.816406 178.132812 126.492188 177.789062 C 126.628906 177.714844 126.785156 177.632812 126.976562 177.535156 C 126.15625 160.355469 134.054688 140.207031 148.335938 123.246094 C 156.304688 113.789062 165.738281 105.996094 175.683594 100.644531 C 175.800781 100.398438 175.929688 100.128906 176.074219 99.851562 C 178.859375 94.414062 182.347656 89.78125 186.449219 86.046875 C 192.210938 71.613281 205.003906 61.152344 220.144531 58.5 C 223.945312 55.398438 228.753906 53.910156 233.617188 54.292969 C 242.941406 40.042969 260.683594 28.273438 281.578125 22.59375 C 298.230469 18.070312 315.109375 17.855469 329.226562 21.960938 C 330.019531 21.726562 331.238281 21.371094 333.300781 20.847656 C 334.488281 20.535156 335.742188 20.277344 337.113281 20.058594 C 352.316406 9.644531 372.597656 9.625 387.84375 20.089844 C 388.480469 20.546875 389.203125 21.078125 389.96875 21.6875 C 404.644531 14.359375 421.886719 15.53125 435.417969 24.917969 C 438.378906 26.90625 441.105469 29.304688 443.523438 32.054688 L 443.664062 31.925781 L 443.699219 32.03125 C 457.742188 26.175781 473.882812 27.765625 486.441406 36.402344 C 492.800781 40.832031 497.871094 46.722656 501.21875 53.558594 C 516.703125 51.984375 534.75 56.269531 551.164062 65.472656 C 574.15625 78.359375 589.699219 98.109375 592.101562 116.886719 L 593.402344 116.011719 L 592.453125 118.933594 C 597.578125 120.222656 602.410156 122.421875 606.832031 125.496094 C 623.5625 137.019531 630.335938 158.574219 623.445312 177.480469 C 624.925781 178.296875 626.1875 179.097656 627.347656 179.957031 C 644.441406 191.730469 651.066406 213.378906 643.53125 232.769531 C 643.617188 234.535156 643.605469 236.292969 643.480469 238.117188 C 643.417969 239.289062 643.292969 240.097656 643.195312 240.742188 C 643.054688 241.667969 643.054688 241.667969 643.511719 242.785156 C 646.566406 249.9375 650.410156 260.957031 651.128906 268.359375 C 651.980469 277.472656 651.84375 284.523438 650.65625 292.699219 Z M 495.753906 143.441406 L 526.582031 148.792969 C 526.679688 147.261719 526.925781 145.78125 527.335938 144.359375 L 496.503906 139.011719 C 496.417969 140.539062 496.164062 142.023438 495.753906 143.441406 Z M 359 138.871094 L 455.863281 139.816406 C 455.792969 139.140625 455.757812 138.460938 455.757812 137.769531 C 455.757812 136.941406 455.820312 136.125 455.921875 135.324219 L 359.058594 134.371094 C 359.125 135.046875 359.160156 135.730469 359.160156 136.417969 C 359.160156 137.25 359.097656 138.0625 359 138.871094 Z M 476.207031 159.273438 C 488.042969 159.273438 497.644531 149.667969 497.644531 137.757812 C 497.644531 125.933594 488.042969 116.332031 476.207031 116.332031 C 464.289062 116.332031 454.679688 125.933594 454.679688 137.757812 C 454.679688 149.667969 464.289062 159.273438 476.207031 159.273438 Z M 235.375 170.976562 C 243.925781 170.976562 250.929688 164.035156 250.929688 155.496094 C 250.929688 146.953125 243.925781 139.953125 235.375 139.953125 C 226.828125 139.953125 219.824219 146.953125 219.824219 155.496094 C 219.824219 164.035156 226.828125 170.976562 235.375 170.976562 Z M 235.375 175.859375 C 246.625 175.859375 255.8125 166.734375 255.8125 155.496094 C 255.8125 144.257812 246.625 135.070312 235.375 135.070312 C 224.128906 135.070312 215.003906 144.257812 215.003906 155.496094 C 215.003906 166.734375 224.128906 175.859375 235.375 175.859375 Z M 338.800781 157.625 C 327.128906 157.625 317.566406 148.070312 317.566406 136.40625 C 317.566406 124.746094 327.128906 115.273438 338.800781 115.273438 C 350.46875 115.273438 359.945312 124.746094 359.945312 136.40625 C 359.945312 148.070312 350.46875 157.625 338.800781 157.625 " fill-opacity="1" fill-rule="nonzero"/></g></svg>