<svg width="175" height="175" viewBox="0 0 175 175" fill="none" xmlns="http://www.w3.org/2000/svg">
<circle cx="87.5" cy="87.5" r="87.5" fill="white"/>
<path d="M47.3633 99.2402H59.4922V102H43.9707V76.4062H47.3633V99.2402ZM81.8691 90.0293C81.8691 92.5371 81.4473 94.7285 80.6035 96.6035C79.7598 98.4668 78.5645 99.8906 77.0176 100.875C75.4707 101.859 73.666 102.352 71.6035 102.352C69.5879 102.352 67.8008 101.859 66.2422 100.875C64.6836 99.8789 63.4707 98.4668 62.6035 96.6387C61.748 94.7988 61.3086 92.6719 61.2852 90.2578V88.4121C61.2852 85.9512 61.7129 83.7773 62.5684 81.8906C63.4238 80.0039 64.6309 78.5625 66.1895 77.5664C67.7598 76.5586 69.5527 76.0547 71.5684 76.0547C73.6191 76.0547 75.4238 76.5527 76.9824 77.5488C78.5527 78.5332 79.7598 79.9688 80.6035 81.8555C81.4473 83.7305 81.8691 85.916 81.8691 88.4121V90.0293ZM78.5117 88.377C78.5117 85.3418 77.9023 83.0156 76.6836 81.3984C75.4648 79.7695 73.7598 78.9551 71.5684 78.9551C69.4355 78.9551 67.7539 79.7695 66.5234 81.3984C65.3047 83.0156 64.6777 85.2656 64.6426 88.1484V90.0293C64.6426 92.9707 65.2578 95.2852 66.4883 96.9727C67.7305 98.6484 69.4355 99.4863 71.6035 99.4863C73.7832 99.4863 75.4707 98.6953 76.666 97.1133C77.8613 95.5195 78.4766 93.2402 78.5117 90.2754V88.377ZM105.828 98.6426C104.961 99.8848 103.748 100.816 102.189 101.438C100.643 102.047 98.8379 102.352 96.7754 102.352C94.6895 102.352 92.8379 101.865 91.2207 100.893C89.6035 99.9082 88.3496 98.5137 87.459 96.709C86.5801 94.9043 86.1289 92.8125 86.1055 90.4336V88.2012C86.1055 84.3457 87.002 81.3574 88.7949 79.2363C90.5996 77.1152 93.1309 76.0547 96.3887 76.0547C99.0605 76.0547 101.211 76.7402 102.84 78.1113C104.469 79.4707 105.465 81.4043 105.828 83.9121H102.453C101.82 80.5254 99.8047 78.832 96.4062 78.832C94.1445 78.832 92.4277 79.6289 91.2559 81.2227C90.0957 82.8047 89.5098 85.1016 89.498 88.1133V90.2051C89.498 93.0762 90.1543 95.3613 91.4668 97.0605C92.7793 98.748 94.5547 99.5918 96.793 99.5918C98.0586 99.5918 99.166 99.4512 100.115 99.1699C101.064 98.8887 101.85 98.4141 102.471 97.7461V91.998H96.5469V89.2559H105.828V98.6426ZM131.158 90.0293C131.158 92.5371 130.736 94.7285 129.893 96.6035C129.049 98.4668 127.854 99.8906 126.307 100.875C124.76 101.859 122.955 102.352 120.893 102.352C118.877 102.352 117.09 101.859 115.531 100.875C113.973 99.8789 112.76 98.4668 111.893 96.6387C111.037 94.7988 110.598 92.6719 110.574 90.2578V88.4121C110.574 85.9512 111.002 83.7773 111.857 81.8906C112.713 80.0039 113.92 78.5625 115.479 77.5664C117.049 76.5586 118.842 76.0547 120.857 76.0547C122.908 76.0547 124.713 76.5527 126.271 77.5488C127.842 78.5332 129.049 79.9688 129.893 81.8555C130.736 83.7305 131.158 85.916 131.158 88.4121V90.0293ZM127.801 88.377C127.801 85.3418 127.191 83.0156 125.973 81.3984C124.754 79.7695 123.049 78.9551 120.857 78.9551C118.725 78.9551 117.043 79.7695 115.812 81.3984C114.594 83.0156 113.967 85.2656 113.932 88.1484V90.0293C113.932 92.9707 114.547 95.2852 115.777 96.9727C117.02 98.6484 118.725 99.4863 120.893 99.4863C123.072 99.4863 124.76 98.6953 125.955 97.1133C127.15 95.5195 127.766 93.2402 127.801 90.2754V88.377Z" fill="#999999"/>
</svg>
