<?xml version="1.0" standalone="yes"?>
<svg xmlns="http://www.w3.org/2000/svg" width="351" height="109">
<path style="fill:#010101; stroke:none;" d="M0 0L0 8L19 6.72222L32 1L0 0z"/>
<path style="fill:#eccb6d; stroke:none;" d="M32 0.52932C6.41465 6.43375 13.1989 35.7593 24.1551 51C26.9444 54.8801 34.2719 68.0962 40 66.6543C45.5098 65.2674 50.3292 56.3141 53.4205 52C58.5032 44.9069 64.3885 36.0113 64.892 27C65.9046 8.87799 48.9704 -3.38701 32 0.52932z"/>
<path style="fill:#010101; stroke:none;" d="M46 0L46 1C50.5775 2.32172 54.4094 5.68301 59 6.69753C63.9625 7.79424 71.597 5.06123 75.3966 9.43364C78.458 12.9566 77 20.6632 77 25L77 67C77 71.4047 78.7835 81.0697 74.5664 83.9722C70.0911 87.0524 59.2684 85 54 85L0 85L0 109L147 109L148 106C144.24 100.197 149.68 92.4194 154 99L148 102L156 100L155 96C158.878 96.1254 161.072 96.5016 163 100L164 100C174.9 86.9666 171.328 114.564 163 101L162 101L162 105L152 104L150 109L351 109L351 94L350 94L349 105L345 105L347 93L351 93L351 0L46 0z"/>
<path style="fill:#fdfa03; stroke:none;" d="M2 7L2 8L20 8L2 7M58 7L58 8L73 8L58 7z"/>
<path style="fill:#eccb6d; stroke:none;" d="M73 7L74 8L73 7M0 8L1 9L0 8z"/>
<path style="fill:#73a471; stroke:none;" d="M0 9L0 10L20 9L0 9M58 8L58 9L76 10L58 8z"/>
<path style="fill:#eccb6d; stroke:none;" d="M75 8L76 9L75 8M80.6034 9.02778C77.4005 11.5646 79 20.3675 79 24L79 68C79 72.4087 77.1143 82.1988 82.1481 84.3966C86.926 86.4827 94.8553 85 100 85L141 85L284 85L329 85C333.452 85 342.717 86.735 346.397 83.821C349.593 81.2893 348 72.6232 348 69L348 25C348 21.1391 349.869 10.6637 345.682 8.60339C341.436 6.51406 333.653 8 329 8L288 8L142 8L97 8C92.8748 8 83.9999 6.33766 80.6034 9.02778z"/>
<path style="fill:#056761; stroke:none;" d="M0 72L29 58C18.5936 39.7319 8.03463 29.8448 19 9L1.6034 10.0278L0 26L0 72M59 9C70.6391 28.3522 59.5087 37.1494 52 55L76 59L76 23L74.3966 10.0278L59 9z"/>
<path style="fill:#eccb6d; stroke:none;" d="M76 9L76 83L77 83L77 32L76 9z"/>
<path style="fill:#73a471; stroke:none;" d="M18 10L19 11L18 10M17 11L18 12L17 11M60 11L61 12L60 11M61 12L62 13L61 12M16 13L17 14L16 13M35.6667 14.3333L36.3333 14.6667L35.6667 14.3333z"/>
<path style="fill:#056761; stroke:none;" d="M37.0008 14.5486C23.5618 17.4301 27.68 38.0079 40.9992 35.4267C54.7114 32.7694 50.5337 11.6469 37.0008 14.5486z"/>
<path style="fill:#73a471; stroke:none;" d="M42 14L43 15L42 14M62 14L63 15L62 14M15 15L16 16L15 15M33 15L34 16L33 15M44 15L45 16L44 15M63.3333 16.6667L63.6667 17.3333L63.3333 16.6667M14 17L15 18L14 17M29 19L30 20L29 19M48 19L49 20L48 19M64 19L64 22L65 22L64 19M13 20L13 25L14 25L13 20M28.3333 21.6667L28.6667 22.3333L28.3333 21.6667M49 21L50 22L49 21M13 27L13 31L14 31L13 27M28.3333 27.6667L28.6667 28.3333L28.3333 27.6667M49 28L50 29L49 28M109 28L109 29L113 29L109 28z"/>
<path style="fill:#056761; stroke:none;" d="M113 28.5177C91.1042 30.1819 84.2081 66.6835 110 64.909C131.669 63.4181 138.971 26.5439 113 28.5177z"/>
<path style="fill:#73a471; stroke:none;" d="M116 28L116 29L120 29L116 28M139 28L139 29L158 29L139 28M172 32L173 32L173 29L178 29C174.736 27.759 173.07 28.7695 172 32M198 28L198 29L202 29L198 28z"/>
<path style="fill:#056761; stroke:none;" d="M211 48L206 48C205.46 50.8652 205.299 54.2129 204.11 56.8912C201.335 63.1459 192.985 60.9357 189.279 56.8665C181.392 48.208 190.95 34.1047 201 33.1049C205.046 32.7024 209.035 33.2639 213 34L214 30C209.213 28.7614 204.935 27.9551 200 28.7554C187.583 30.7691 172.875 48.6919 184.419 60.6065C188.925 65.2569 203.692 68.0335 207.987 61.6968C210.343 58.2206 210.233 52.0701 211 48z"/>
<path style="fill:#73a471; stroke:none;" d="M207 28L207 29L210 29L207 28M221 32L222 32L222 29L227 29C223.736 27.759 222.07 28.7695 221 32M235 28L235 29L241 29L235 28M262 28L262 29L267 29L262 28M288 28L288 29L294 29L288 28M314 28L314 29L333 29L314 28M106 29L107 30L106 29M122 29L123 30L122 29z"/>
<path style="fill:#056761; stroke:none;" d="M139 29L133 65L138 65L143 33C146.914 33 153.506 31.7809 156.663 34.6034C162.571 39.8861 150.973 45.2805 147 46C147.815 53.9606 152.146 64.7101 161 65L153 48C159.087 46.192 170.212 35.721 160.852 30.179C155.493 27.0058 145.067 29 139 29z"/>
<path style="fill:#73a471; stroke:none;" d="M160 29L161 30L160 29z"/>
<path style="fill:#056761; stroke:none;" d="M173 29L167 65L172 65L178 29L173 29z"/>
<path style="fill:#73a471; stroke:none;" d="M194.667 29.3333L195.333 29.6667L194.667 29.3333M212.667 29.3333L213.333 29.6667L212.667 29.3333z"/>
<path style="fill:#056761; stroke:none;" d="M222 29L216 65L221 65L227 29L222 29M235 29L229 65L234 65L238 36C244.403 43.7351 250.074 64.1566 261 65L267 29L262 29L258 56C251.428 48.0613 246.466 29.3754 235 29M266 65C276.02 64.2266 285.323 42.5327 289 34L294 50C289.018 50.0005 284.844 49.3644 282 54L295 54C295.77 59.7153 296.531 64.4974 303 65L294 29C281.967 29.1434 270.415 54.7669 266 65M314 29L308 65L313 65L318 33C321.867 33 328.548 31.7628 331.638 34.6034C337.384 39.8854 325.927 45.2888 322 46C322.815 53.9606 327.146 64.7101 336 65L328 48C334.086 46.192 345.212 35.721 335.852 30.179C330.493 27.0058 320.067 29 314 29z"/>
<path style="fill:#73a471; stroke:none;" d="M335 29L336 30L335 29M29 30L30 31L29 30M48 30L49 31L48 30M64.3333 30.6667L64.6667 31.3333L64.3333 30.6667M103.667 30.3333L104.333 30.6667L103.667 30.3333M124 30L125 31L124 30M162 30L163 31L162 30M192 30L193 31L192 30M214 30L215 31L214 30M234 30L234 33L235 33L234 30M286 30L287 31L286 30M337 30L338 31L337 30M30 31L31 32L30 31M102 31L103 32L102 31M138 31L138 34L139 34L138 31M163 31L164 32L163 31M177 31L177 34L178 34L177 31M190 31L191 32L190 31M226 31L226 34L227 34L226 31M242 31L243 32L242 31M294.333 31.6667L294.667 32.3333L294.333 31.6667M313 31L313 34L314 34L313 31M338 31L339 32L338 31M100 32L101 33L100 32M261 32L261 35L262 35L261 32M266 32L266 35L267 35L266 32M285 32L286 33L285 32M14 33L15 34L14 33M32 33L33 34L32 33M63.3333 33.6667L63.6667 34.3333L63.3333 33.6667M99 33L100 34L99 33M108.667 33.3333L109.333 33.6667L108.667 33.3333z"/>
<path style="fill:#eccb6d; stroke:none;" d="M110 33.5332C94.6387 37.2474 95.0756 64.7519 114 59.5664C128.02 55.7247 127.902 29.2046 110 33.5332z"/>
<path style="fill:#73a471; stroke:none;" d="M118 33L119 34L118 33M143 33L143 36L144 36L143 33M155.667 33.3333L156.333 33.6667L155.667 33.3333M197.667 33.3333L198.333 33.6667L197.667 33.3333M209.667 33.3333L210.333 33.6667L209.667 33.3333M213 33L212 35L214 35L213 33M243 33L244 34L243 33M284 33L285 34L284 33M318 33L318 36L319 36L318 33M330.667 33.3333L331.333 33.6667L330.667 33.3333M33 34L34 35L33 34M44 34L45 35L44 34M98 34L99 35L98 34M106 34L107 35L106 34M120 34L121 35L120 34M128 34L129 35L128 34M164 34L164 38L165 38L164 34M195 34L196 35L195 34M289 34L290 35L289 34M339 34L339 38L340 38L339 34M15.3333 35.6667L15.6667 36.3333L15.3333 35.6667M35.6667 35.3333L36.3333 35.6667L35.6667 35.3333M41.6667 35.3333L42.3333 35.6667L41.6667 35.3333M104 35L105 36L104 35M158 35L158 40L159 40L158 35M171 35L171 38L172 38L171 35M193 35L194 36L193 35M220 35L220 38L221 38L220 35M283 35L284 36L283 35M288 35L289 36L288 35M295.333 35.6667L295.667 36.3333L295.333 35.6667M333 35L333 39L334 39L333 35M62 36L63 37L62 36M103 36L104 37L103 36M129.333 36.6667L129.667 37.3333L129.333 36.6667M176 36L176 39L177 39L176 36M185 36L186 37L185 36M225 36L225 39L226 39L225 36M233 36L233 39L234 39L233 36M238 36L238 39L239 39L238 36M245 36L246 37L245 36M290.333 36.6667L290.667 37.3333L290.333 36.6667M96 37L97 38L96 37M102 37L103 38L102 37M123 37L124 38L123 37M137 37L137 40L138 40L137 37M184 37L185 38L184 37M260 37L260 40L261 40L260 37M282 37L283 38L282 37M287 37L288 38L287 37M312.333 37.6667L312.667 38.3333L312.333 37.6667M16 38L17 39L16 38M61 38L62 39L61 38M240 38L241 39L240 38M246 38L247 39L246 38M265 38L265 41L266 41L265 38M281 38L282 39L281 38M95 39L96 40L95 39M101 39L102 40L101 39M142 39L142 42L143 42L142 39M183 39L184 40L183 39M189 39L190 40L189 39M296 39L297 40L296 39M317 39L317 42L318 42L317 39M17 40L18 41L17 40M60 40L61 41L60 40M100.333 40.6667L100.667 41.3333L100.333 40.6667M124 40L124 45L125 45L124 40M157 40L158 41L157 40M163 40L164 41L163 40M241 40L242 41L241 40M280 40L281 41L280 40M285 40L286 41L285 40M291.333 40.6667L291.667 41.3333L291.333 40.6667M332 40L333 41L332 40M338 40L339 41L338 40M94.3333 41.6667L94.6667 42.3333L94.3333 41.6667M170 41L170 44L171 44L170 41M182.333 41.6667L182.667 42.3333L182.333 41.6667M188 41L189 42L188 41M219 41L219 44L220 44L219 41M232 41L232 44L233 44L232 41M248 41L249 42L248 41M18 42L19 43L18 42M59 42L60 43L59 42M136 42L136 45L137 45L136 42M162 42L163 43L162 42M175 42L175 45L176 45L175 42M224 42L224 45L225 45L224 42M237 42L237 45L238 45L237 42M242 42L243 43L242 42M284 42L285 43L284 42M297.333 42.6667L297.667 43.3333L297.333 42.6667M311 42L311 45L312 45L311 42M19 43L20 44L19 43M99.3333 43.6667L99.6667 44.3333L99.3333 43.6667M154 43L155 44L154 43M161 43L162 44L161 43M187.333 43.6667L187.667 44.3333L187.333 43.6667M243 43L244 44L243 43M249 43L250 44L249 43M259 43L259 46L260 46L259 43M278 43L279 44L278 43M329 43L330 44L329 43M336 43L337 44L336 43M58 44L59 45L58 44M152 44L153 45L152 44M160 44L161 45L160 44M264.333 44.6667L264.667 45.3333L264.333 44.6667M292.333 44.6667L292.667 45.3333L292.333 44.6667M327 44L328 45L327 44M335 44L336 45L335 44M20 45L21 46L20 45M93.3333 45.6667L93.6667 46.3333L93.3333 45.6667M141 45L141 48L142 48L141 45M148 45L148 46L151 46L148 45M181 45L181 48L182 48L181 45M244 45L245 46L244 45M277 45L278 46L277 45M282 45L283 46L282 45M316.333 45.6667L316.667 46.3333L316.333 45.6667M323 45L323 46L326 46L323 45M129.333 46.6667L129.667 47.3333L129.333 46.6667M157 46L158 47L157 46M169 46L169 49L170 49L169 46M218 46L218 49L219 49L218 46M251 46L252 47L251 46M298.333 46.6667L298.667 47.3333L298.333 46.6667M321 46L321 49L322 49L321 46M332 46L333 47L332 46M56 47L57 48L56 47M98 47L98 54L99 54L98 47M146.333 47.6667L146.667 48.3333L146.333 47.6667M155 47L156 48L155 47M231 47L231 50L232 50L231 47M245 47L246 48L245 47M281 47L282 48L281 47M330 47L331 48L330 47M22 48L23 49L22 48M123.333 48.6667L123.667 49.3333L123.333 48.6667M135 48L135 51L136 51L135 48M153.333 48.6667L153.667 49.3333L153.333 48.6667M174 48L174 51L175 51L174 48M186 48L186 53L187 53L186 48M223 48L223 51L224 51L223 48M236.333 48.6667L236.667 49.3333L236.333 48.6667M252 48L253 49L252 48M275 48L276 49L275 48M293 48L284 49L284 50L293 48M310 48L310 51L311 51L310 48M328.333 48.6667L328.667 49.3333L328.333 48.6667M205.333 49.6667L205.667 50.3333L205.333 49.6667M258 49L258 52L259 52L258 49M263 49L263 52L264 52L263 49M54 50L55 51L54 50M128.333 50.6667L128.667 51.3333L128.333 50.6667M147 50L148 51L147 50M210 50L210 53L211 53L210 50M247 50L248 51L247 50M274 50L275 51L274 50M279 50L280 51L279 50M283 50L284 51L283 50M299.333 50.6667L299.667 51.3333L299.333 50.6667M315 50L315 53L316 53L315 50M322 50L323 51L322 50M24 51L25 52L24 51M53 51L54 52L53 51M122.333 51.6667L122.667 52.3333L122.333 51.6667M140.333 51.6667L140.667 52.3333L140.333 51.6667M154 51L155 52L154 51M254 51L255 52L254 51M273 51L274 52L273 51M329 51L330 52L329 51M25 52L26 53L25 52M148 52L149 53L148 52M168 52L168 55L169 55L168 52M217 52L217 55L218 55L217 52M248 52L249 53L248 52M278 52L279 53L278 52M282 52L283 53L282 52M323 52L324 53L323 52M127 53L128 54L127 53M155 53L156 54L155 53M173 53L173 56L174 56L173 53M222 53L222 56L223 56L222 53M230 53L230 56L231 56L230 53M235 53L235 56L236 56L235 53M255 53L256 54L255 53M272 53L273 54L272 53M281 53L282 54L281 53M330 53L331 54L330 53M51 54L45 63L76 62C73.8494 54.6416 57.3293 55.5974 51 54M134 54L134 57L135 57L134 54M149 54L150 55L149 54M204 54L204 57L205 57L204 54M249 54L250 55L249 54M257.333 54.6667L257.667 55.3333L257.333 54.6667M282 54L282 55L295 55L282 54M300.333 54.6667L300.667 55.3333L300.333 54.6667M309.333 54.6667L309.667 55.3333L309.333 54.6667M324 54L325 55L324 54M27 55L28 56L27 55M93.3333 55.6667L93.6667 56.3333L93.3333 55.6667M99 55L100 56L99 55M120 55L121 56L120 55M126 55L127 56L126 55M156 55L157 56L156 55M181 55L182 56L181 55M187 55L188 56L187 55M250 55L251 56L250 55M262 55L262 58L263 58L262 55M271 55L272 56L271 55M276 55L277 56L276 55M331 55L332 56L331 55M28 56L29 57L28 56M119 56L120 57L119 56M139 56L139 59L140 59L139 56M150 56L151 57L150 56M157 56L158 57L157 56M209 56L209 59L210 59L209 56M270 56L271 57L270 56M314 56L314 59L315 59L314 56M325 56L326 57L325 56M100 57L101 58L100 57M118 57L119 58L118 57M125 57L126 58L125 57M251 57L252 58L251 57M275 57L276 58L275 57M295.333 57.6667L295.667 58.3333L295.333 57.6667M301.333 57.6667L301.667 58.3333L301.333 57.6667M0 84C14.7031 88.346 34.6586 85 50 85C58.3124 85 68.0013 86.3643 76 84L76 69C63.7896 75.8047 58.6594 84 44 84C52.9896 76.2219 64.0042 68.7716 76 67L76 63C64.9962 65.0429 54.5287 65.3632 44 69.8727C30.3104 75.736 23.5044 84 8 84C15.8574 76.2077 25.2096 69.1085 36 66C28.5901 54.1954 7.5308 60.755 1.02778 72.1844C-0.894521 75.563 0.256431 80.2734 0 84M94 58L95 59L94 58M101 58L102 59L101 58M117 58L118 59L117 58M124 58L125 59L124 58M151 58L152 59L151 58M158 58L159 59L158 58M167 58L167 61L168 61L167 58M182 58L183 59L182 58M216 58L216 61L217 61L216 58M229 58L229 61L230 61L229 58M269 58L270 59L269 58M326 58L327 59L326 58M333 58L334 59L333 58M103 59L104 60L103 59M115 59L116 60L115 59M123 59L124 60L123 59M133 59L133 62L134 62L133 59M172 59L172 62L173 62L172 59M191 59L192 60L191 59M221 59L221 62L222 62L221 59M234 59L234 62L235 62L234 59M252 59L253 60L252 59M308 59L308 62L309 62L308 59M95 60L96 61L95 60M106 60L106 61L113 61L106 60M122 60L123 61L122 60M152 60L153 61L152 60M159 60L160 61L159 60M194 60L194 61L202 61L194 60M253 60L254 61L253 60M273 60L274 61L273 60M327 60L328 61L327 60M334 60L335 61L334 60z"/>
<path style="fill:#056761; stroke:none;" d="M8 84C24.4022 84 31.4124 75.3622 46 69.4529C55.9402 65.4262 65.8456 65.4176 76 63C64.8229 57.0577 50.6367 62.2934 40 65.9969C27.7464 70.2635 16.3889 72.1896 8 84z"/>
<path style="fill:#73a471; stroke:none;" d="M96 61L97 62L96 61M121 61L122 62L121 61M261.333 61.6667L261.667 62.3333L261.333 61.6667M267 61L268 62L267 61M296 61L297 62L296 61M302.333 61.6667L302.667 62.3333L302.333 61.6667M97 62L98 63L97 62M119 62L120 63L119 62M138 62L138 65L139 65L138 62M153 62L154 63L153 62M160 62L161 63L160 62M186 62L187 63L186 62M208 62L209 63L208 62M254 62L255 63L254 62M272 62L273 63L272 62M313.333 62.6667L313.667 63.3333L313.333 62.6667M328 62L329 63L328 62M335 62L336 63L335 62M99 63L100 64L99 63M117 63L118 64L117 63M166.333 63.6667L166.667 64.3333L166.333 63.6667M188 63L189 64L188 63M207 63L208 64L207 63M215.333 63.6667L215.667 64.3333L215.333 63.6667M266 63L267 64L266 63M101.667 64.3333L102.333 64.6667L101.667 64.3333M113 64L113 65L116 65L113 64M161 64L162 65L161 64M190.667 64.3333L191.333 64.6667L190.667 64.3333M203 64L203 65L206 65L203 64M228 64L229 65L228 64M255 64L256 65L255 64M297 64L298 65L297 64M329 64L330 65L329 64M336 64L337 65L336 64M108 65L109 66L108 65M197.667 65.3333L198.333 65.6667L197.667 65.3333z"/>
<path style="fill:#056761; stroke:none;" d="M44 84C56.235 84 69.9511 78.84 76 67C64.7648 67.9809 51.0957 75.2843 44 84M75.3333 81.6667L75.6667 82.3333L75.3333 81.6667M0 82L1 83L0 82M1.66667 83.3333L2.33333 83.6667L1.66667 83.3333M73.6667 83.3333L74.3333 83.6667L73.6667 83.3333z"/>
<path style="fill:#eccb6d; stroke:none;" d="M0 84L1 85L0 84M75 84L76 85L75 84M157 92C157.795 95.7122 161.205 95.7122 162 92L157 92M320 100L318 105L326 105C326.845 100.364 327.394 96.9003 322 96L322 95L326 92C321.787 93.2035 319.204 95.474 320 100M90.2284 94.0278C83.6914 98.0107 88.5178 108.255 95.8557 103.972C102.827 99.9029 97.5471 89.5686 90.2284 94.0278M108 93L108 95L111 95L111 93L108 93M122 93L122 95L125 95L125 93L122 93M175 105L188 105C186.103 90.9131 179.974 93.457 175 105M191 93L189 105L193 100L194 100L194 105L199 101L200 101L200 105L203 105L205 93L196 100L195 93L191 93M204 105L217 105C214.291 91.874 208.185 91.7783 204 105M228 105L229 99L225 103C218.925 97.4686 227.392 96.9172 230 93C217.583 93.0096 213.84 104.95 228 105M240 105L240 99L237 103C229.233 98.1017 239.425 96.4026 242 93C229.583 93.0096 225.84 104.95 240 105M243 93L242 105L245 105L247 93L243 93M251 93L249 105L257 95C254.07 99.6768 253.543 103.946 260 105L260 93L251 93M347 93L345 105L349 105L351 93L347 93z"/>
<path style="fill:#fdfa03; stroke:none;" d="M246 94L247 95L246 94z"/>
<path style="fill:#010101; stroke:none;" d="M95 95C84.5545 98.9953 97.9643 106.162 95 95z"/>
<path style="fill:#eccb6d; stroke:none;" d="M101 96L100 105L103 105L106 96L101 96M107 96L106 105L109 105L110 96L107 96M115 105L115 106L110 105C110.729 108.4 114.964 109.261 117.667 106.667C120.232 104.204 119.986 99.2498 120 96C114.141 96.0692 105.815 102.186 115 105M122 96L120 105C124.245 103.596 124.467 100.102 125 96L122 96M126 96L125 105L128 105L132 99L131 105L134 105L134 101L135 101C136.456 105.387 139.85 104.985 144 105L144 96L137 96L136 101C133.66 96.1914 131.088 96.018 126 96M148 106L146 108C149.651 108.556 150.593 107.314 152 104L162 105L162 101L163 101C164.911 105.754 172.43 106.328 172.623 100.039C172.813 93.8548 165.786 96.7616 164 100L163 100C161.657 95.954 158.935 96.0466 155 96L156 100L148 102L154 99C152.596 92.449 140.537 98.6223 148 106M268 105L268 103L264 103L264 102L269 102L269 96C260.495 96.277 258.558 104.69 268 105M270 105L277 103L278 103L278 108L281 105C295.565 103.889 279.823 88.141 279 103L278 103L278 96C271.399 96.215 270.356 98.9037 270 105M291.317 97.0324C286.689 100.038 290.782 107.15 295.683 103.968C300.311 100.962 296.218 93.85 291.317 97.0324M300 96L299 105L302 105L305 98L304 105L308 105L308 96L300 96M309 105C316.239 104.914 316.321 102.271 318 96C311.196 96.0806 309.848 98.4793 309 105M328 96L329 105L335 100L336 100C337.303 104.292 339.735 104.861 344 105L344 103L340 103L340 102L345 102L345 96L338 98C334.965 96.1114 333.785 97.075 332 100L331 100L331 96L328 96z"/>
<path style="fill:#010101; stroke:none;" d="M211.333 97.6667L211.667 98.3333L211.333 97.6667M115 98L113 102L117 98L115 98M139.667 98.3333L140.333 98.6667L139.667 98.3333M157.667 98.3333L158.333 98.6667L157.667 98.3333M168 98L166 102L169 103L168 98M182.667 98.3333L183.333 98.6667L182.667 98.3333M265 98L266 99L265 98M274.667 98.3333L275.333 98.6667L274.667 98.3333M282 98L282 103L284 98L282 98M293 98L292 103L295 98L293 98M313.667 98.3333L314.333 98.6667L313.667 98.3333M321.667 98.3333L322.333 98.6667L321.667 98.3333M336.333 98.6667L336.667 99.3333L336.333 98.6667M341 98L342 99L341 98z"/>
<path style="fill:#fdfa03; stroke:none;" d="M349 99L350 100L349 99z"/>
<path style="fill:#010101; stroke:none;" d="M209 100L210 101L209 100M138.667 102.333L139.333 102.667L138.667 102.333M157 102L158 103L157 102M271 102L271 103L274 103L271 102M311 102L311 103L314 103L311 102M321.667 102.333L322.333 102.667L321.667 102.333z"/>
<path style="fill:#fdfa03; stroke:none;" d="M241 104L242 105L241 104z"/>
</svg>
