<?xml version="1.0" encoding="utf-8"?>
<!-- Generator: Adobe Illustrator 17.0.0, SVG Export Plug-In . SVG Version: 6.00 Build 0)  -->
<!DOCTYPE svg PUBLIC "-//W3C//DTD SVG 1.1//EN" "http://www.w3.org/Graphics/SVG/1.1/DTD/svg11.dtd">
<svg version="1.1" id="Camada_1" xmlns="http://www.w3.org/2000/svg" xmlns:xlink="http://www.w3.org/1999/xlink" x="0px" y="0px"
	 width="730px" height="646px" viewBox="0 0 730 646" enable-background="new 0 0 730 646" xml:space="preserve">
<circle fill="#76AADB" cx="373.726" cy="342.268" r="254.302"/>
<g>
	<path fill="#FFFFFF" d="M64.389,462.773c-9.14,0-16.576-7.81-16.576-17.409v-225.23c0-9.6,7.436-17.409,16.576-17.409h390.56
		c9.141,0,16.576,7.81,16.576,17.409v225.23c0,9.6-7.436,17.409-16.576,17.409H64.389z"/>
	<path fill="#4A72B2" d="M454.948,206.725c6.946,0,12.576,6.004,12.576,13.409v225.23c0,7.406-5.63,13.409-12.576,13.409H64.389
		c-6.946,0-12.576-6.004-12.576-13.409v-225.23c0-7.406,5.631-13.409,12.576-13.409H454.948 M454.948,198.725H64.389
		c-11.346,0-20.576,9.604-20.576,21.409v225.23c0,11.805,9.23,21.409,20.576,21.409h390.559c11.346,0,20.576-9.604,20.576-21.409
		v-225.23C475.524,208.329,466.294,198.725,454.948,198.725L454.948,198.725z"/>
</g>
<g>
	<rect x="83.441" y="237.304" fill="#A3BD31" width="352.456" height="94.892"/>
	<rect x="311.555" y="351.362" fill="#A3BD31" width="124.341" height="78.531"/>
	<rect x="83.441" y="351.362" fill="#4A72B2" width="202.872" height="16.828"/>
	<rect x="83.441" y="413.065" fill="#4A72B2" width="202.872" height="16.828"/>
	<rect x="83.441" y="382.213" fill="#4A72B2" width="202.872" height="16.828"/>
</g>
<g>
	<path fill="#FFFFFF" d="M545.089,468.803c-10.195,0-18.49-8.295-18.49-18.49V216.885c0-10.196,8.295-18.491,18.49-18.491h118.608
		c10.195,0,18.49,8.295,18.49,18.491v233.428c0,10.195-8.295,18.49-18.49,18.49H545.089z"/>
	<path fill="#4A72B2" d="M663.697,202.394c8.003,0,14.491,6.488,14.491,14.491v233.428c0,8.003-6.488,14.491-14.491,14.491H545.089
		c-8.003,0-14.491-6.488-14.491-14.491V216.885c0-8.003,6.488-14.491,14.491-14.491H663.697 M663.697,194.394H545.089
		c-12.401,0-22.491,10.089-22.491,22.491v233.428c0,12.401,10.089,22.491,22.491,22.491h118.608
		c12.401,0,22.491-10.089,22.491-22.491V216.885C686.187,204.483,676.098,194.394,663.697,194.394L663.697,194.394z"/>
</g>
<path fill="#4A72B2" d="M375.128,506.499c0,2.788-4.521,5.048-10.097,5.048H154.306c-5.576,0-10.097-2.26-10.097-5.048v-1.589
	c0-2.788,4.521-5.048,10.097-5.048h210.725c5.576,0,10.097,2.26,10.097,5.048V506.499z"/>
<path fill="#4A72B2" d="M276.887,491.354c0,11.153-0.674,20.194-1.506,20.194h-31.426c-0.832,0-1.506-9.041-1.506-20.194v-6.357
	c0-11.153,0.674-20.194,1.506-20.194h31.426c0.832,0,1.506,9.041,1.506,20.194V491.354z"/>
<rect x="542.222" y="246.302" fill="#A3BD31" width="124.341" height="133.987"/>
<rect x="542.222" y="218.628" fill="#4A72B2" width="55.395" height="13.497"/>
<rect x="542.222" y="398.966" fill="#4A72B2" width="55.395" height="43.777"/>
<rect x="611.168" y="398.966" fill="#4A72B2" width="55.395" height="43.777"/>
</svg>
