<?xml version="1.0" encoding="utf-8"?>
<!-- Generator: Adobe Illustrator 17.0.0, SVG Export Plug-In . SVG Version: 6.00 Build 0)  -->
<!DOCTYPE svg PUBLIC "-//W3C//DTD SVG 1.1//EN" "http://www.w3.org/Graphics/SVG/1.1/DTD/svg11.dtd">
<svg version="1.1" id="Camada_1" xmlns="http://www.w3.org/2000/svg" xmlns:xlink="http://www.w3.org/1999/xlink" x="0px" y="0px"
	 width="730px" height="646px" viewBox="0 0 730 646" enable-background="new 0 0 730 646" xml:space="preserve">
<circle fill="#76AADB" cx="379.641" cy="323.5" r="254.302"/>
<g>
	<path fill="#FFFFFF" d="M184.361,453.525c-9.14,0-16.576-7.81-16.576-17.409v-225.23c0-9.6,7.436-17.41,16.576-17.41H574.92
		c9.141,0,16.576,7.81,16.576,17.41v225.23c0,9.6-7.436,17.409-16.576,17.409H184.361z"/>
	<path fill="#4A72B2" d="M574.92,197.476c6.946,0,12.576,6.004,12.576,13.409v225.23c0,7.406-5.631,13.409-12.576,13.409H184.361
		c-6.946,0-12.576-6.004-12.576-13.409v-225.23c0-7.406,5.631-13.409,12.576-13.409H574.92 M574.92,189.476H184.361
		c-11.346,0-20.576,9.604-20.576,21.409v225.23c0,11.805,9.23,21.409,20.576,21.409H574.92c11.346,0,20.576-9.604,20.576-21.409
		v-225.23C595.496,199.08,586.266,189.476,574.92,189.476L574.92,189.476z"/>
</g>
<rect x="203.413" y="228.055" fill="#A3BD31" width="75.587" height="94.892"/>
<rect x="203.413" y="342.113" fill="#A3BD31" width="75.587" height="78.531"/>
<g>
	<path fill="#FFFFFF" d="M1103.061-57.344c-10.195,0-18.49-8.295-18.49-18.49v-233.428c0-10.196,8.295-18.491,18.49-18.491h118.608
		c10.195,0,18.49,8.295,18.49,18.491v233.428c0,10.195-8.295,18.49-18.49,18.49H1103.061z"/>
	<path fill="#4A72B2" d="M1221.669-323.752c8.003,0,14.49,6.488,14.49,14.491v233.428c0,8.003-6.488,14.491-14.49,14.491h-118.608
		c-8.003,0-14.491-6.488-14.491-14.491v-233.428c0-8.003,6.488-14.491,14.491-14.491H1221.669 M1221.669-331.752h-118.608
		c-12.401,0-22.491,10.089-22.491,22.491v233.428c0,12.401,10.089,22.491,22.491,22.491h118.608c12.401,0,22.49-10.089,22.49-22.491
		v-233.428C1244.159-321.663,1234.07-331.752,1221.669-331.752L1221.669-331.752z"/>
</g>
<rect x="1100.195" y="-279.845" fill="#A3BD31" width="124.341" height="133.987"/>
<rect x="1100.194" y="-307.518" fill="#4A72B2" width="55.395" height="13.497"/>
<rect x="1100.194" y="-127.18" fill="#4A72B2" width="55.395" height="43.777"/>
<rect x="1169.14" y="-127.18" fill="#4A72B2" width="55.395" height="43.777"/>
<g>
	<polygon fill="#A3BD31" points="1505.771,578.201 1205.771,578.201 1249.497,323.5 1457.163,323.5 	"/>
	<path fill="none" stroke="#4A72B2" stroke-width="10" stroke-miterlimit="10" d="M1301.56,353.445V270.33
		c0,0,0-43.994,53.406-43.994c52.466,0,52.466,43.994,52.466,43.994v83.115"/>
</g>
<polygon fill="#FFFFFF" stroke="#4A72B2" stroke-width="5" stroke-miterlimit="10" points="1379.88,402.268 1379.88,586.759 
	1430.877,535.762 1462.367,599.357 1484.271,584.664 1458.097,519.034 1519.373,500.813 "/>
<g>
	<path fill="#444242" d="M570.684,175.223c-1.164-5.753-2.974-11.272-5.351-16.478l-26.98,0.747l9.041-25.41
		c-4.256-3.903-8.956-7.33-14.014-10.197l-21.383,16.458l-7.623-25.875c-2.845-0.321-5.736-0.492-8.667-0.492
		s-5.821,0.171-8.667,0.492l-7.623,25.875l-21.383-16.458c-5.058,2.868-9.758,6.294-14.014,10.197l9.041,25.41l-26.98-0.747
		c-2.376,5.206-4.187,10.725-5.351,16.478l22.264,15.253l-22.264,15.253c1.164,5.753,2.975,11.272,5.351,16.478l26.98-0.747
		l-9.041,25.41c4.256,3.903,8.956,7.33,14.014,10.197l21.383-16.458l7.623,25.875c2.845,0.321,5.736,0.492,8.667,0.492
		s5.821-0.171,8.667-0.492l7.623-25.875l21.383,16.458c5.058-2.868,9.758-6.294,14.014-10.197l-9.041-25.41l26.98,0.747
		c2.376-5.206,4.187-10.724,5.351-16.478l-22.264-15.253L570.684,175.223z M495.707,228.828c-20.773,0-37.613-16.84-37.613-37.613
		c0-20.773,16.84-37.613,37.613-37.613s37.613,16.84,37.613,37.613C533.32,211.988,516.48,228.828,495.707,228.828z"/>
</g>
<text transform="matrix(0.8073 0 0 1 325.0019 371.965)" fill="#4A72B2" font-family="'MyriadPro-Bold'" font-size="141.3476">&lt; / &gt;</text>
<g>
	<path fill="#A3BD31" d="M574.351,168.141c-1.164-5.753-2.974-11.272-5.351-16.478l-26.98,0.747L551.06,127
		c-4.256-3.903-8.956-7.33-14.014-10.197l-21.383,16.458l-7.623-25.875c-2.845-0.321-5.736-0.492-8.667-0.492
		s-5.821,0.171-8.667,0.492l-7.623,25.875l-21.383-16.458c-5.058,2.868-9.758,6.294-14.014,10.197l9.041,25.41l-26.98-0.747
		c-2.376,5.206-4.187,10.725-5.351,16.478l22.264,15.253l-22.264,15.253c1.164,5.753,2.975,11.272,5.351,16.478l26.98-0.747
		l-9.041,25.41c4.256,3.903,8.956,7.33,14.014,10.197l21.383-16.458l7.623,25.875c2.845,0.321,5.736,0.492,8.667,0.492
		s5.821-0.171,8.667-0.492l7.623-25.875l21.383,16.458c5.058-2.868,9.758-6.294,14.014-10.197l-9.041-25.41l26.98,0.747
		c2.376-5.206,4.187-10.724,5.351-16.478l-22.264-15.253L574.351,168.141z M499.374,221.746c-20.773,0-37.613-16.84-37.613-37.613
		c0-20.773,16.84-37.613,37.613-37.613s37.613,16.84,37.613,37.613C536.987,204.906,520.147,221.746,499.374,221.746z"/>
</g>
</svg>
