<?xml version="1.0" encoding="UTF-8"?>
<svg xmlns="http://www.w3.org/2000/svg" width="64" height="64" viewBox="0 0 64 64" fill="none">
   <path d="M21.63 28.25H17.34C16.7877 28.25 16.34 28.6977 16.34 29.25V56.29C16.34 56.8423 16.7877 57.29 17.34 57.29H21.63C22.1822 57.29 22.63 56.8423 22.63 56.29V29.25C22.63 28.6977 22.1822 28.25 21.63 28.25Z" fill="#007aba" />
   <path d="M30.31 38.26H26.02C25.4677 38.26 25.02 38.7077 25.02 39.26V56.29C25.02 56.8423 25.4677 57.29 26.02 57.29H30.31C30.8623 57.29 31.31 56.8423 31.31 56.29V39.26C31.31 38.7077 30.8623 38.26 30.31 38.26Z" fill="#007aba" />
   <path d="M39 31.66H34.71C34.1577 31.66 33.71 32.1077 33.71 32.66V56.29C33.71 56.8423 34.1577 57.29 34.71 57.29H39C39.5522 57.29 40 56.8423 40 56.29V32.66C40 32.1077 39.5522 31.66 39 31.66Z" fill="#007aba" />
   <path d="M55.07 3H8C6.67392 3 5.40215 3.52678 4.46447 4.46447C3.52678 5.40215 3 6.67392 3 8V45C3 46.3261 3.52678 47.5979 4.46447 48.5355C5.40215 49.4732 6.67392 50 8 50H11.15V60C11.15 60.2652 11.2554 60.5196 11.4429 60.7071C11.6304 60.8946 11.8848 61 12.15 61H52C52.2652 61 52.5196 60.8946 52.7071 60.7071C52.8946 60.5196 53 60.2652 53 60C53 59.7348 52.8946 59.4804 52.7071 59.2929C52.5196 59.1054 52.2652 59 52 59H13.15V20.15C13.15 19.8848 13.0446 19.6304 12.8571 19.4429C12.6696 19.2554 12.4152 19.15 12.15 19.15C11.8848 19.15 11.6304 19.2554 11.4429 19.4429C11.2554 19.6304 11.15 19.8848 11.15 20.15V48H8C7.20435 48 6.44129 47.6839 5.87868 47.1213C5.31607 46.5587 5 45.7956 5 45V14.57H58.07V45C58.07 45.7956 57.7539 46.5587 57.1913 47.1213C56.6287 47.6839 55.8656 48 55.07 48H48.68V25.84C48.68 25.5748 48.5746 25.3204 48.3871 25.1329C48.1996 24.9454 47.9452 24.84 47.68 24.84H43.39C43.1248 24.84 42.8704 24.9454 42.6829 25.1329C42.4954 25.3204 42.39 25.5748 42.39 25.84V56.29C42.39 56.5552 42.4954 56.8096 42.6829 56.9971C42.8704 57.1846 43.1248 57.29 43.39 57.29H47.68C47.9452 57.29 48.1996 57.1846 48.3871 56.9971C48.5746 56.8096 48.68 56.5552 48.68 56.29V50H55.07C56.3961 50 57.6679 49.4732 58.6055 48.5355C59.5432 47.5979 60.07 46.3261 60.07 45V8C60.07 6.67392 59.5432 5.40215 58.6055 4.46447C57.6679 3.52678 56.3961 3 55.07 3V3ZM12.15 9.79H11C10.7348 9.79 10.4804 9.68464 10.2929 9.49711C10.1054 9.30957 10 9.05522 10 8.79C10 8.52478 10.1054 8.27043 10.2929 8.08289C10.4804 7.89536 10.7348 7.79 11 7.79H12.12C12.3852 7.79 12.6396 7.89536 12.8271 8.08289C13.0146 8.27043 13.12 8.52478 13.12 8.79C13.12 9.05522 13.0146 9.30957 12.8271 9.49711C12.6396 9.68464 12.3852 9.79 12.12 9.79H12.15ZM16.46 9.79H15.34C15.0748 9.79 14.8204 9.68464 14.6329 9.49711C14.4454 9.30957 14.34 9.05522 14.34 8.79C14.34 8.52478 14.4454 8.27043 14.6329 8.08289C14.8204 7.89536 15.0748 7.79 15.34 7.79H16.46C16.7252 7.79 16.9796 7.89536 17.1671 8.08289C17.3546 8.27043 17.46 8.52478 17.46 8.79C17.46 9.05522 17.3546 9.30957 17.1671 9.49711C16.9796 9.68464 16.7252 9.79 16.46 9.79ZM20.78 9.79H19.65C19.3848 9.79 19.1304 9.68464 18.9429 9.49711C18.7554 9.30957 18.65 9.05522 18.65 8.79C18.65 8.52478 18.7554 8.27043 18.9429 8.08289C19.1304 7.89536 19.3848 7.79 19.65 7.79H20.78C21.0452 7.79 21.2996 7.89536 21.4871 8.08289C21.6746 8.27043 21.78 8.52478 21.78 8.79C21.78 9.05522 21.6746 9.30957 21.4871 9.49711C21.2996 9.68464 21.0452 9.79 20.78 9.79V9.79ZM53 9.79H44.19C43.9248 9.79 43.6704 9.68464 43.4829 9.49711C43.2954 9.30957 43.19 9.05522 43.19 8.79C43.19 8.52478 43.2954 8.27043 43.4829 8.08289C43.6704 7.89536 43.9248 7.79 44.19 7.79H53C53.2652 7.79 53.5196 7.89536 53.7071 8.08289C53.8946 8.27043 54 8.52478 54 8.79C54 9.05522 53.8946 9.30957 53.7071 9.49711C53.5196 9.68464 53.2652 9.79 53 9.79Z" fill="#007aba" />
</svg>